# 3ds Max Wavefront OBJ Exporter v0.97b - (c)2007 guruware
# File Created: 07.02.2017 20:25:08

mtllib figur000.mtl

#
# object Base_HumanTransform
#

v  0.3967 0.0419 0.1147
v  0.3915 0.0279 0.1251
v  0.3915 0.0765 0.1251
v  0.3967 0.1006 0.1147
v  0.3967 0.0419 -0.1405
v  0.3915 0.0279 -0.1300
v  0.3967 -0.0000 -0.1405
v  0.3915 -0.0000 -0.1300
v  0.3967 -0.0419 -0.1405
v  0.3915 -0.0279 -0.1300
v  0.3967 -0.0419 0.1147
v  0.3915 -0.0279 0.1251
v  0.3967 -0.1006 0.1147
v  0.3915 -0.0765 0.1251
v  0.3967 -0.0000 0.2463
v  0.3915 -0.0000 0.2252
# 16 vertices

vn -0.9536 0.1728 -0.2464
vn -0.9973 0.0538 -0.0499
vn -0.9854 0.1346 -0.1039
vn -0.9807 0.1766 -0.0839
vn -0.9574 0.2118 -0.1963
vn -0.9745 0.1288 -0.1836
vn -0.8944 0.0000 -0.4472
vn -0.9733 -0.0000 -0.2297
vn -0.9574 -0.2118 -0.1963
vn -0.9745 -0.1288 -0.1836
vn -0.9536 -0.1728 -0.2464
vn -0.9973 -0.0538 -0.0499
vn -0.9807 -0.1766 -0.0839
vn -0.9854 -0.1346 -0.1039
vn -0.9704 -0.0000 0.2414
vn -0.9819 0.0000 0.1896
# 16 vertex normals

g Base_HumanTransform
usemtl wire_225088199
s 1
f 1//1 2//2 3//3 4//4 
f 5//5 6//6 2//2 1//1 
f 7//7 8//8 6//6 5//5 
f 9//9 10//10 8//8 7//7 
f 11//11 12//12 10//10 9//9 
f 13//13 14//14 12//12 11//11 
f 15//15 16//16 14//14 13//13 
f 4//4 3//3 16//16 15//15 
f 2//2 6//6 8//8 10//10 12//12 14//14 16//16 3//3 
# 9 polygons

