# 3ds Max Wavefront OBJ Exporter v0.97b - (c)2007 guruware
# File Created: 08.02.2017 01:05:41

mtllib polizei000.mtl

#
# object Sphere003
#

v  -0.4018 -0.6924 1.0082
v  -0.5380 -0.6914 0.9500
v  -0.6601 -0.9050 1.4736
v  0.3436 -0.6950 1.0390
v  0.4519 -0.9201 1.6217
v  0.6032 -0.9146 1.5394
v  -0.3275 -0.6950 1.0390
v  -0.3796 -0.9187 1.6376
v  -0.1768 -0.9225 1.6971
v  0.7455 -0.6829 0.8213
v  0.6234 -0.6872 0.9040
v  0.9718 -0.8710 1.1708
v  1.0520 -0.8469 1.0337
v  -0.7614 -0.8953 1.3840
v  1.1504 -0.5983 0.2557
v  1.2128 -0.6773 0.4074
v  1.2096 -0.6234 0.2626
v  -1.0318 -0.6393 0.4671
v  -1.1625 -0.7250 0.5748
v  -1.1195 -0.7817 0.7743
v  -0.1052 -0.6962 1.0845
v  0.5584 -0.6449 0.9613
v  0.7513 -0.6368 0.8330
v  0.1213 -0.6962 1.0845
v  0.2329 -0.9235 1.6929
v  -0.0409 -0.9236 1.7136
v  0.0978 -0.9239 1.7122
v  -0.7294 -0.6829 0.8213
v  -1.0737 -0.8141 0.9082
v  -1.0157 -0.8409 1.0359
v  -0.8437 -0.9224 1.2687
v  -0.7390 -0.9372 1.3828
v  -0.8409 -0.8844 1.2983
v  1.1911 -0.5636 0.1182
v  1.1594 -0.5534 0.2696
v  1.0218 -0.8931 1.0545
v  0.5149 -0.9589 1.5731
v  0.6436 -0.9526 1.4922
v  1.1904 -0.7580 0.5172
v  1.1985 -0.6781 0.2893
v  1.0744 -0.8718 0.9472
v  -1.1343 -0.5983 0.2557
v  -1.1749 -0.6849 0.4515
v  -1.1546 -0.7512 0.5197
v  -1.1314 -0.7941 0.6614
v  -0.6525 -0.9456 1.4588
v  -0.5426 -0.6428 0.9620
v  -0.7356 -0.6347 0.8338
v  -1.0406 -0.5919 0.4809
v  0.1222 -0.6473 1.0960
v  -0.1061 -0.6473 1.0960
v  0.3464 -0.6462 1.0507
v  0.1737 -0.9650 1.6883
v  0.3045 -0.9639 1.6594
v  -0.3399 -0.9607 1.6364
v  -0.5823 -0.9104 1.5301
v  -0.4781 -0.9561 1.5742
v  -1.1518 -0.5833 0.1966
v  -1.1620 -0.5747 0.1621
v  -1.1736 -0.6166 0.2651
v  -1.0302 -0.8696 0.9676
v  0.0773 -0.9651 1.6985
v  -0.2676 -0.9622 1.6600
v  -0.0985 -0.9644 1.6937
v  0.9023 -0.8852 1.2663
v  0.7981 -0.8998 1.3824
v  0.7615 -0.9430 1.3945
v  0.5541 -0.6914 0.9500
v  0.4512 -0.6917 0.9942
v  0.7414 -0.9054 1.4351
v  0.9389 -0.9159 1.1889
v  1.0479 -0.6393 0.4671
v  0.9117 -0.6666 0.6581
v  1.1886 -0.7501 0.6331
v  1.0561 -0.5939 0.4802
v  1.1611 -0.7831 0.7524
v  1.1099 -0.8203 0.9059
v  1.1311 -0.8372 0.7965
v  -0.9138 -0.9081 1.1746
v  0.9188 -0.6208 0.6704
v  1.2269 -0.4956 0.0473
v  -1.1509 -0.6161 0.1587
v  -1.1639 -0.7021 0.3749
v  -0.9032 -0.6187 0.6712
v  -0.8956 -0.6666 0.6581
v  1.2079 -0.5811 0.0187
v  -0.3304 -0.6462 1.0507
v  1.1629 -0.8062 0.6789
v  -1.1439 -0.5514 0.2703
v  -1.2108 -0.4956 0.0473
v  -1.0757 -0.8447 0.8562
v  -0.9461 -0.8628 1.1562
v  -1.1919 -0.5811 0.0187
v  0.3809 -0.9217 1.6506
v  1.1794 -0.6069 0.1133
v  0.6817 -0.9100 1.4840
v  0.4295 -0.9615 1.6145
v  -1.1432 -0.5907 0.2257
# 98 vertices

vn -0.3201 0.4538 0.8316
vn -0.4023 0.4629 0.7899
vn -0.5355 0.3813 0.7536
vn 0.2410 0.4849 0.8407
vn 0.3588 0.3992 0.8437
vn 0.4581 0.3752 0.8058
vn -0.2387 0.4854 0.8411
vn -0.3215 0.3934 0.8613
vn -0.1656 0.3894 0.9061
vn 0.5350 0.4442 0.7187
vn 0.4672 0.4324 0.7712
vn 0.7424 0.3521 0.5700
vn 0.7917 0.3553 0.4970
vn -0.6130 0.3697 0.6983
vn 0.7992 0.4260 0.4241
vn 0.9188 0.3597 0.1628
vn 0.9069 0.4137 0.0800
vn -0.7351 0.4218 0.5308
vn -0.8920 0.3704 0.2592
vn -0.8727 0.3361 0.3542
vn -0.0826 0.4935 0.8658
vn 0.4442 -0.2507 0.8601
vn 0.5974 -0.2706 0.7549
vn 0.0819 0.4933 0.8660
vn 0.1774 0.4006 0.8989
vn -0.0363 0.3940 0.9184
vn 0.0646 0.4142 0.9079
vn -0.5319 0.4403 0.7233
vn -0.8248 0.3593 0.4365
vn -0.7919 0.3265 0.5161
vn -0.7302 -0.3822 0.5664
vn -0.6372 -0.3823 0.6692
vn -0.6659 0.3653 0.6505
vn 0.9647 -0.2163 0.1504
vn 0.9050 -0.2906 0.3107
vn 0.8198 -0.3896 0.4196
vn 0.4409 -0.3245 0.8368
vn 0.5332 -0.3861 0.7527
vn 0.9596 -0.2808 0.0191
vn 0.9434 -0.2967 -0.1482
vn 0.8633 -0.3860 0.3251
vn -0.7995 0.4249 0.4245
vn -0.9023 0.3879 0.1879
vn -0.9415 -0.3370 0.0026
vn -0.9398 -0.3171 0.1276
vn -0.5699 -0.3885 0.7240
vn -0.4427 -0.2549 0.8597
vn -0.5945 -0.2744 0.7558
vn -0.8272 -0.3024 0.4736
vn 0.0919 -0.2302 0.9688
vn -0.0928 -0.2309 0.9686
vn 0.2736 -0.2394 0.9316
vn 0.1349 -0.3266 0.9355
vn 0.2506 -0.3241 0.9122
vn -0.2924 -0.3087 0.9051
vn -0.4715 0.3545 0.8075
vn -0.4407 -0.2796 0.8530
vn -0.7815 0.5007 0.3723
vn -0.9639 -0.2168 0.1546
vn -0.9171 0.3886 0.0890
vn -0.8542 -0.3908 0.3429
vn 0.0352 -0.3430 0.9387
vn -0.2787 -0.2008 0.9392
vn -0.1036 -0.3387 0.9352
vn 0.6867 0.3131 0.6560
vn 0.6374 0.3530 0.6849
vn 0.6286 -0.4120 0.6597
vn 0.3959 0.4673 0.7905
vn 0.3252 0.4525 0.8304
vn 0.5626 0.3640 0.7423
vn 0.7529 -0.4159 0.5100
vn 0.7355 0.4210 0.5309
vn 0.6440 0.4276 0.6344
vn 0.8902 0.3622 0.2765
vn 0.8300 -0.2949 0.4734
vn 0.8659 0.3602 0.3472
vn 0.8347 0.3472 0.4274
vn 0.9030 -0.3670 0.2235
vn -0.7712 -0.3820 0.5093
vn 0.7230 -0.2878 0.6281
vn 0.9312 -0.2899 0.2210
vn -0.9575 -0.2866 -0.0312
vn -0.9559 -0.2764 -0.0998
vn -0.7256 -0.2926 0.6228
vn -0.6450 0.4277 0.6333
vn 0.9310 -0.2924 0.2184
vn -0.2724 -0.2403 0.9317
vn 0.9221 -0.3682 0.1188
vn -0.8996 -0.2978 0.3195
vn -0.9312 -0.2903 0.2203
vn -0.8922 -0.3813 0.2422
vn -0.7486 0.3498 0.5633
vn -0.9315 -0.2908 0.2187
vn 0.2840 0.3933 0.8744
vn 0.9598 -0.2782 -0.0388
vn 0.5359 0.3722 0.7578
vn 0.3526 -0.3670 0.8608
vn -0.5661 0.7388 0.3655
vn -0.9348 -0.2748 0.2251
# 99 vertex normals

g Sphere003
usemtl 07___Default
s 1
f 1//1 2//2 3//3 
f 4//4 5//5 6//6 
f 7//7 8//8 9//9 
f 10//10 11//11 12//12 
f 10//10 12//12 13//13 
f 2//2 14//14 3//3 
f 15//15 16//16 17//17 
f 18//18 19//19 20//20 
f 21//21 7//7 9//9 
f 22//22 11//11 23//23 
f 4//4 24//24 25//25 
f 24//24 26//26 27//27 
f 28//28 29//29 30//30 
f 31//31 32//32 33//33 
f 11//11 10//10 23//23 
f 15//15 34//34 35//35 
f 13//13 12//12 36//36 
f 37//37 38//38 6//6 
f 39//39 40//40 16//16 
f 36//36 41//41 13//13 
f 18//18 42//42 43//43 
f 44//44 45//45 19//19 
f 3//3 14//14 46//46 
f 2//2 47//47 48//48 
f 42//42 18//18 49//49 
f 50//50 51//51 24//24 
f 24//24 4//4 52//52 
f 6//6 5//5 37//37 
f 53//53 54//54 25//25 
f 9//9 8//8 55//55 
f 56//56 46//46 57//57 
f 58//58 59//59 60//60 
f 30//30 29//29 61//61 
f 20//20 19//19 45//45 
f 27//27 26//26 62//62 
f 63//63 64//64 9//9 
f 7//7 21//21 51//51 
f 2//2 1//1 47//47 
f 65//65 66//66 67//67 
f 68//68 66//66 65//65 
f 68//68 69//69 70//70 
f 69//69 68//68 22//22 
f 65//65 67//67 71//71 
f 72//72 73//73 74//74 
f 73//73 72//72 75//75 
f 76//76 77//77 78//78 
f 73//73 77//77 76//76 
f 61//61 79//79 30//30 
f 80//80 73//73 75//75 
f 34//34 81//81 35//35 
f 82//82 83//83 60//60 
f 28//28 84//84 85//85 
f 28//28 85//85 29//29 
f 17//17 16//16 40//40 
f 34//34 86//86 81//81 
f 7//7 51//51 87//87 
f 52//52 69//69 22//22 
f 88//88 39//39 74//74 
f 59//59 89//89 90//90 
f 20//20 45//45 91//91 
f 33//33 92//92 31//31 
f 2//2 92//92 33//33 
f 59//59 90//90 93//93 
f 73//73 10//10 77//77 
f 23//23 10//10 73//73 
f 23//23 73//73 80//80 
f 94//94 25//25 54//54 
f 4//4 25//25 94//94 
f 7//7 56//56 8//8 
f 8//8 56//56 57//57 
f 34//34 95//95 86//86 
f 18//18 84//84 49//49 
f 72//72 74//74 16//16 
f 16//16 74//74 39//39 
f 64//64 62//62 26//26 
f 42//42 60//60 43//43 
f 43//43 60//60 83//83 
f 82//82 59//59 93//93 
f 60//60 59//59 82//82 
f 70//70 96//96 67//67 
f 69//69 96//96 70//70 
f 51//51 21//21 24//24 
f 24//24 21//21 26//26 
f 2//2 28//28 92//92 
f 2//2 48//48 28//28 
f 38//38 67//67 96//96 
f 59//59 58//58 89//89 
f 42//42 49//49 89//89 
f 40//40 95//95 17//17 
f 26//26 9//9 64//64 
f 21//21 9//9 26//26 
f 85//85 18//18 20//20 
f 18//18 85//85 84//84 
f 75//75 15//15 35//35 
f 75//75 72//72 15//15 
f 15//15 72//72 16//16 
f 57//57 55//55 8//8 
f 28//28 48//48 84//84 
f 12//12 65//65 71//71 
f 11//11 65//65 12//12 
f 29//29 20//20 91//91 
f 85//85 20//20 29//29 
f 24//24 52//52 50//50 
f 1//1 87//87 47//47 
f 54//54 97//97 94//94 
f 77//77 41//41 78//78 
f 32//32 46//46 14//14 
f 18//18 43//43 19//19 
f 19//19 43//43 44//44 
f 71//71 36//36 12//12 
f 83//83 44//44 43//43 
f 15//15 17//17 34//34 
f 34//34 17//17 95//95 
f 2//2 33//33 14//14 
f 14//14 33//33 32//32 
f 91//91 61//61 29//29 
f 10//10 13//13 77//77 
f 77//77 13//13 41//41 
f 25//25 27//27 53//53 
f 24//24 27//27 25//25 
f 69//69 4//4 6//6 
f 52//52 4//4 69//69 
f 42//42 98//98 60//60 
f 89//89 98//98 42//42 
f 28//28 30//30 92//92 
f 92//92 30//30 79//79 
f 79//79 31//31 92//92 
f 62//62 53//53 27//27 
f 11//11 68//68 65//65 
f 22//22 68//68 11//11 
f 4//4 94//94 5//5 
f 97//97 5//5 94//94 
f 76//76 78//78 88//88 
f 1//1 3//3 56//56 
f 56//56 3//3 46//46 
f 55//55 63//63 9//9 
f 69//69 6//6 96//96 
f 96//96 6//6 38//38 
f 74//74 76//76 88//88 
f 73//73 76//76 74//74 
f 7//7 1//1 56//56 
f 1//1 7//7 87//87 
f 97//97 37//37 5//5 
f 98//98 58//58 60//60 
f 98//99 89//99 58//99 
f 68//68 70//70 66//66 
f 67//67 66//66 70//70 
# 0 polygons - 147 triangles

#
# object Sphere002
#

v  -0.0000 -0.4417 -1.7136
v  0.1410 -0.7450 -1.4158
v  -1.0217 -0.3820 -1.2426
v  -0.5489 0.8445 0.6029
v  0.0000 0.4426 1.2719
v  0.2121 0.8715 0.7516
v  0.6748 -0.6267 0.7207
v  1.0768 -0.7275 0.1200
v  1.4133 -0.2381 -0.1443
v  1.0217 -0.3820 -1.2426
v  0.3218 -0.3114 -1.6667
v  0.8479 0.3212 -1.1721
v  -0.0000 0.8153 -0.7515
v  0.8489 0.5746 -0.8870
v  0.2121 0.4897 -1.3555
v  -0.9863 -0.0173 -1.2662
v  -1.4133 -0.2381 -0.1443
v  -0.3218 0.2281 1.3107
v  -0.9863 0.3637 0.8365
v  -0.9911 -0.0665 0.9155
v  -0.8764 -0.7152 0.3330
v  0.8764 -0.7152 0.3330
v  0.3880 0.8902 -0.3379
v  0.8489 0.7866 0.2832
v  0.9911 -0.0665 0.9155
v  -0.0000 0.9651 0.0757
v  -0.8489 0.5746 -0.8870
v  -0.2744 0.8372 -0.6304
v  -0.2121 0.4897 -1.3555
v  -0.8435 -0.4546 -1.1619
v  -0.8435 -0.7448 -1.1619
v  -1.1370 -0.7448 -0.8121
v  0.4125 -0.4546 -1.2833
v  0.4125 -0.7448 -1.2833
v  0.7737 -0.4546 -1.0747
v  0.8468 -0.4546 -1.1619
v  0.8468 -0.7448 -1.1619
v  0.4514 -0.4546 -1.3902
v  -0.7704 -0.7448 -1.0747
v  -0.4091 -0.4546 -1.2833
v  -1.0385 -0.4546 -0.7552
v  -1.1370 -0.4546 0.5028
v  -1.1370 -0.7448 0.5028
v  -0.8435 -0.4546 0.8526
v  0.0017 -0.4546 1.0464
v  0.0017 -0.7448 1.0464
v  -0.4091 -0.7448 0.9740
v  -0.4480 -0.4546 1.0809
v  -0.4480 -0.7448 1.0809
v  0.0017 -0.7448 1.1602
v  -0.7704 -0.4546 0.7654
v  -0.7704 -0.7448 0.7654
v  -1.0385 -0.4546 0.4459
v  0.0000 0.0128 1.3530
v  1.0418 -0.4546 0.4459
v  1.1845 -0.7448 0.0539
v  0.7737 -0.7448 0.7654
v  1.1404 -0.4546 0.5028
v  1.1404 -0.7448 0.5028
v  1.2966 -0.7448 0.0737
v  0.8468 -0.7448 0.8526
v  0.4514 -0.4546 1.0809
v  0.4125 -0.4546 0.9740
v  -1.1812 -0.7448 -0.3632
v  -1.1812 -0.4546 0.0539
v  -1.0385 -0.7448 0.4459
v  -1.2932 -0.4546 0.0737
v  -1.2932 -0.7448 0.0737
v  -1.1370 -0.4546 -0.8121
v  -0.8325 -0.6751 -1.1008
v  -1.0768 -0.7275 0.1200
v  1.0418 -0.7448 -0.7552
v  1.2966 -0.7448 -0.3830
v  1.2966 -0.4546 -0.3830
v  1.2966 -0.4546 0.0737
v  1.1845 -0.7448 -0.3632
v  1.1845 -0.4546 0.0539
v  1.0418 -0.4546 -0.7552
v  1.1404 -0.4546 -0.8121
v  1.1404 -0.7448 -0.8121
v  1.3949 0.1732 -0.2149
v  1.3967 -0.1038 -0.5210
v  -0.0000 0.2533 -1.5465
v  -1.3949 0.1732 -0.2149
v  0.9336 -0.7388 -0.8764
v  0.4514 -0.7448 -1.3902
v  0.0017 -0.4546 -1.3557
v  0.0017 -0.7448 -1.3557
v  0.4125 -0.7448 0.9740
v  0.0017 -0.4546 1.1602
v  0.9863 0.3637 0.8365
v  -0.6748 -0.6267 0.7207
v  0.0000 -0.5815 0.9704
v  -0.4480 -0.4546 -1.3902
v  0.0017 -0.7448 -1.4695
v  -0.4091 -0.7448 -1.2833
v  0.0017 -0.4546 -1.4695
v  0.4514 -0.7448 1.0809
v  -1.2932 -0.4546 -0.3830
v  -1.2932 -0.7448 -0.3830
v  -0.9884 0.7215 -0.0759
v  -0.2744 0.9432 -0.0455
v  -0.8435 -0.7448 0.8526
v  -1.1812 -0.4546 -0.3632
# 104 vertices

vn -0.0854 -0.3218 -0.9480
vn 0.1103 -0.5891 -0.8174
vn -0.7228 -0.2854 -0.6354
vn -0.3989 0.7983 0.4833
vn 0.0555 0.4626 0.8958
vn 0.1659 0.8240 0.5732
vn 0.4073 -0.7016 0.5624
vn 0.8901 -0.3111 0.3221
vn 0.9719 -0.2113 0.0986
vn 0.7153 -0.2439 -0.6591
vn 0.3375 -0.1207 -0.9313
vn 0.6531 0.3059 -0.6786
vn 0.0453 0.9143 -0.3815
vn 0.6346 0.6516 -0.3972
vn 0.2305 0.5850 -0.7554
vn -0.7008 0.1271 -0.6931
vn -0.9803 -0.1950 0.0309
vn -0.3243 0.1958 0.9260
vn -0.7244 0.3672 0.5932
vn -0.7268 -0.1312 0.6654
vn -0.3515 -0.8576 0.3559
vn 0.3490 -0.8576 0.3582
vn 0.2932 0.9476 -0.1317
vn 0.6256 0.7564 0.2324
vn 0.7068 -0.1026 0.6918
vn 0.0429 1.0013 0.1209
vn -0.6262 0.6163 -0.4584
vn -0.2246 0.9277 -0.2823
vn -0.2430 0.5769 -0.7579
vn -0.5034 0.6743 -0.5192
vn -0.4404 -0.6702 -0.6204
vn -0.6273 -0.6722 -0.4201
vn -0.2060 0.7515 0.6530
vn -0.2835 -0.7603 0.5610
vn -0.3762 0.7765 0.5353
vn 0.5034 0.6743 -0.5192
vn 0.4609 -0.6723 -0.6026
vn 0.2718 0.6751 -0.6626
vn 0.4638 -0.7847 0.3912
vn 0.2265 0.7585 0.6379
vn 0.4979 0.7805 0.4112
vn -0.6273 0.6722 0.4201
vn -0.6644 -0.6734 0.3080
vn -0.4609 0.6723 0.6026
vn 0.0324 0.7618 -0.6225
vn 0.0000 -0.7519 -0.6851
vn 0.1969 -0.7770 -0.6259
vn -0.2439 0.6724 0.7205
vn -0.2718 -0.6751 0.6626
vn -0.0000 -0.6754 0.7136
vn 0.4421 0.7604 -0.4543
vn 0.3937 -0.7506 -0.5586
vn 0.6097 0.7507 -0.2407
vn 0.0565 -0.1045 0.9827
vn -0.5619 0.7852 -0.2463
vn -0.6261 -0.7538 -0.2400
vn -0.3892 -0.7831 -0.5156
vn 0.6145 0.6697 0.4430
vn 0.6644 -0.6734 0.3080
vn 0.7390 -0.6726 0.0606
vn 0.5265 -0.6364 0.5429
vn 0.2721 0.6720 0.7105
vn -0.2835 0.7603 -0.5610
vn 0.6521 -0.7623 0.0031
vn 0.6348 0.7765 -0.0106
vn 0.5505 -0.7570 -0.3846
vn -0.7244 0.6723 0.1913
vn -0.7390 -0.6726 0.0606
vn -0.6644 0.6734 -0.3080
vn -0.6301 -0.5224 -0.5910
vn -0.8930 -0.3223 0.3032
vn -0.5907 -0.7586 0.2602
vn 0.7244 -0.6723 -0.1913
vn 0.7390 0.6726 -0.0606
vn 0.7244 0.6723 0.1913
vn -0.6348 -0.7765 0.0106
vn -0.6621 0.7540 0.0199
vn -0.5505 0.7570 0.3846
vn 0.6644 0.6734 -0.3080
vn 0.6273 -0.6722 -0.4201
vn 0.9546 0.2996 0.0072
vn 0.9535 -0.0324 -0.2988
vn -0.0115 0.2365 -0.9574
vn -0.9750 0.2199 -0.0321
vn 0.7584 -0.5033 -0.4318
vn 0.2439 -0.6724 -0.7205
vn -0.0000 0.7519 0.6851
vn -0.0000 -0.7549 0.6314
vn -0.2060 -0.7515 -0.6530
vn -0.0000 0.6724 0.7613
vn 0.7020 0.3516 0.6281
vn -0.4164 -0.6912 0.5684
vn 0.0026 -0.7086 0.6814
vn -0.2844 0.6377 -0.6931
vn -0.0291 -0.6714 -0.7617
vn 0.2557 -0.7542 0.5812
vn -0.0000 0.6754 -0.7136
vn 0.2718 -0.6751 0.6626
vn -0.7390 0.6726 -0.0606
vn -0.7244 -0.6723 -0.1913
vn -0.7065 0.7118 0.0455
vn -0.2198 0.9814 0.0134
vn -0.5034 -0.6743 0.5192
vn 0.6407 0.7491 0.2116
# 104 vertex normals

g Sphere002
usemtl 02___Default
s 1
f 99//100 100//101 101//102 
f 102//103 103//104 104//105 
f 105//106 106//107 107//108 
f 108//109 109//110 110//111 
f 111//112 112//113 113//114 
f 114//115 101//102 115//116 
f 116//117 117//118 118//119 
f 119//120 120//121 105//106 
f 112//113 121//122 122//123 
f 123//124 105//106 107//108 
f 104//105 124//125 102//103 
f 125//126 126//127 127//128 
usemtl 03___Default
f 128//129 129//130 130//131 
f 131//132 132//133 133//134 
f 134//135 135//136 136//137 
f 137//138 138//139 139//140 
f 140//141 141//142 142//143 
f 143//144 144//145 145//146 
f 146//147 147//148 148//149 
f 149//150 150//151 151//152 
usemtl 02___Default
f 103//104 152//153 123//124 
f 118//119 152//153 116//117 
usemtl 03___Default
f 153//154 154//155 155//156 
f 156//157 157//158 158//159 
f 159//160 156//157 160//161 
f 155//156 161//162 153//154 
f 139//140 162//163 137//138 
f 163//164 164//165 162//163 
f 165//166 166//167 141//142 
f 130//131 167//168 128//129 
usemtl 02___Default
f 168//169 169//170 115//116 
usemtl 03___Default
f 133//134 132//133 170//171 
f 171//172 172//173 173//174 
f 174//175 175//176 176//177 
f 177//178 178//179 135//136 
usemtl 02___Default
f 122//123 179//180 112//113 
f 110//111 180//181 108//109 
f 99//100 101//102 114//115 
f 110//111 109//110 181//182 
f 114//115 182//183 125//126 
f 182//183 118//119 117//118 
f 107//108 106//107 183//184 
usemtl 03___Default
f 184//185 136//137 135//136 
f 185//186 186//187 132//133 
f 161//162 187//188 143//144 
f 148//149 188//189 146//147 
usemtl 02___Default
f 103//104 189//190 104//105 
f 189//190 179//180 122//123 
f 115//116 169//170 190//191 
f 119//120 191//192 190//191 
f 127//128 114//115 125//126 
f 181//182 99//100 114//115 
usemtl 03___Default
f 192//193 193//194 129//130 
f 138//139 194//195 186//187 
f 136//137 184//185 195//196 
f 186//187 185//186 138//139 
f 154//155 157//158 155//156 
f 188//189 148//149 196//197 
f 164//165 163//164 151//152 
f 197//198 198//199 165//166 
usemtl 02___Default
f 182//183 117//118 199//200 
f 102//103 200//201 199//200 
f 108//109 100//101 109//110 
f 126//127 199//200 200//201 
f 111//112 121//122 112//113 
f 152//153 105//106 123//124 
f 105//106 191//192 119//120 
f 118//119 190//191 152//153 
f 115//116 190//191 118//119 
usemtl 03___Default
f 154//155 175//176 174//175 
f 173//174 158//159 171//172 
f 164//165 151//152 150//151 
f 201//202 142//143 141//142 
f 158//159 173//174 156//157 
f 154//155 153//154 175//176 
f 144//145 148//149 145//146 
f 187//188 196//197 148//149 
usemtl 02___Default
f 189//190 107//108 179//180 
f 107//108 183//184 180//181 
usemtl 03___Default
f 129//130 128//129 192//193 
f 192//193 138//139 185//186 
f 175//176 172//173 176//177 
f 135//136 134//135 177//178 
f 167//168 130//131 198//199 
f 164//165 166//167 162//163 
usemtl 02___Default
f 117//118 116//117 103//104 
f 116//117 152//153 103//104 
usemtl 03___Default
f 162//163 202//203 163//164 
f 167//168 139//140 128//129 
f 145//146 149//150 143//144 
f 142//143 201//202 146//147 
f 174//175 171//172 158//159 
f 178//179 170//171 135//136 
f 184//185 132//133 186//187 
f 193//194 186//187 194//195 
usemtl 02___Default
f 182//183 115//116 118//119 
f 114//115 115//116 182//183 
f 112//113 110//111 113//114 
f 179//180 110//111 112//113 
f 181//182 114//115 127//128 
f 110//111 181//182 113//114 
usemtl 03___Default
f 150//151 201//202 164//165 
f 147//148 145//146 148//149 
usemtl 02___Default
f 101//102 168//169 115//116 
f 100//101 168//169 101//102 
f 189//190 123//124 107//108 
f 103//104 123//124 189//190 
f 111//112 124//125 121//122 
f 124//125 122//123 121//122 
usemtl 03___Default
f 153//154 156//157 173//174 
f 156//157 153//154 161//162 
f 161//162 160//161 156//157 
f 160//161 161//162 143//144 
f 129//130 137//138 162//163 
f 193//194 194//195 129//130 
f 161//162 155//156 187//188 
f 196//197 187//188 155//156 
f 170//171 176//177 133//134 
f 176//177 177//178 134//135 
usemtl 02___Default
f 180//181 179//180 107//108 
f 179//180 180//181 110//111 
f 122//123 124//125 104//105 
f 104//105 189//190 122//123 
usemtl 03___Default
f 195//196 185//186 136//137 
f 136//137 131//132 133//134 
usemtl 02___Default
f 125//126 182//183 199//200 
f 199//200 126//127 125//126 
f 152//153 191//192 105//106 
f 190//191 191//192 152//153 
f 169//170 119//120 190//191 
usemtl 03___Default
f 155//156 159//160 196//197 
f 160//161 196//197 159//160 
usemtl 02___Default
f 183//184 108//109 180//181 
f 108//109 183//184 100//101 
f 117//118 103//104 102//103 
f 199//200 117//118 102//103 
usemtl 03___Default
f 186//187 193//194 184//185 
f 193//194 195//196 184//185 
f 163//164 165//166 140//141 
f 141//142 140//141 165//166 
f 149//150 142//143 146//147 
f 142//143 149//150 140//141 
f 165//166 163//164 197//198 
f 202//203 197//198 163//164 
f 193//194 192//193 195//196 
f 185//186 195//196 192//193 
f 132//133 184//185 135//136 
f 132//133 135//136 170//171 
usemtl 02___Default
f 99//100 181//182 109//110 
f 100//101 99//100 109//110 
usemtl 03___Default
f 162//163 130//131 129//130 
f 162//163 198//199 130//131 
f 138//139 128//129 139//140 
f 138//139 192//193 128//129 
f 175//176 173//174 172//173 
f 173//174 175//176 153//154 
f 158//159 154//155 174//175 
f 154//155 158//159 157//158 
f 141//142 164//165 201//202 
f 164//165 141//142 166//167 
f 143//144 188//189 160//161 
f 196//197 160//161 188//189 
usemtl 02___Default
f 105//106 120//121 106//107 
usemtl 03___Default
f 178//179 177//178 171//172 
f 170//171 178//179 171//172 
f 137//138 129//130 194//195 
f 194//195 138//139 137//138 
usemtl 02___Default
f 181//182 127//128 113//114 
f 111//112 113//114 127//128 
usemtl 03___Default
f 131//132 136//137 185//186 
f 132//133 131//132 185//186 
f 144//145 143//144 187//188 
f 148//149 144//145 187//188 
f 197//198 202//203 139//140 
f 202//203 162//163 139//140 
f 150//151 149//150 145//146 
f 201//202 150//151 145//146 
usemtl 02___Default
f 111//112 126//127 200//201 
f 111//112 127//128 126//127 
usemtl 03___Default
f 149//150 146//147 143//144 
f 188//189 143//144 146//147 
f 133//134 134//135 136//137 
f 134//135 133//134 176//177 
f 151//152 140//141 149//150 
f 140//141 151//152 163//164 
usemtl 02___Default
f 111//112 200//201 124//125 
f 200//201 102//103 124//125 
usemtl 03___Default
f 171//172 174//175 170//171 
f 176//177 170//171 174//175 
f 145//146 147//148 201//202 
f 147//148 146//147 201//202 
f 198//199 197//198 167//168 
f 139//140 167//168 197//198 
f 198//199 162//163 166//167 
f 166//167 165//166 198//199 
f 157//158 156//157 159//160 
f 159//160 155//156 157//158 
f 172//173 171//172 177//178 
f 177//178 176//177 172//173 
# 0 polygons - 199 triangles

