# 3ds Max Wavefront OBJ Exporter v0.97b - (c)2007 guruware
# File Created: 07.05.2017 17:54:34

mtllib brunnen.mtl

#
# object Cylinder001
#

v  -6.0932 27.7050 -22.9607
v  -3.0392 27.7050 -17.5685
v  -3.0392 0.0000 -17.5685
v  -6.0932 0.0000 -22.9607
v  -10.7722 27.7050 -26.9630
v  -10.7722 0.0000 -26.9630
v  -16.5118 0.0000 -29.0926
v  -16.5118 27.7050 -29.0926
v  -33.0385 27.7050 -22.9607
v  -28.3595 27.7050 -26.9630
v  -28.3595 0.0000 -26.9630
v  -33.0385 0.0000 -22.9607
v  -37.1531 27.7050 -11.4366
v  -36.0925 27.7050 -17.5685
v  -36.0925 0.0000 -17.5685
v  -37.1531 0.0000 -11.4366
v  -33.0385 27.7050 0.0875
v  -36.0925 27.7050 -5.3048
v  -36.0925 0.0000 -5.3048
v  -33.0385 0.0000 0.0875
v  -28.3595 27.7050 4.0898
v  -28.3595 0.0000 4.0898
v  -22.6198 27.7050 6.2194
v  -22.6198 0.0000 6.2194
v  -6.0932 27.7050 0.0875
v  -10.7722 27.7050 4.0898
v  -10.7722 0.0000 4.0898
v  -6.0932 0.0000 0.0875
v  -3.0392 27.7050 -5.3047
v  -3.0392 0.0000 -5.3047
v  -1.9786 27.7050 -11.4366
v  -1.9786 0.0000 -11.4366
v  -22.6198 27.7050 -29.0926
v  -22.6198 0.0000 -29.0926
v  -16.5118 27.7050 6.2194
v  -16.5118 0.0000 6.2194
v  -26.3354 27.7050 0.5877
v  -21.8869 27.7050 2.2383
v  -5.8890 3.9210 -11.4459
v  -6.7110 3.9210 -6.6934
v  -6.7110 27.7050 -6.6934
v  -5.8890 27.7050 -11.4459
v  -6.7110 3.9210 -16.1984
v  -6.7110 27.7050 -16.1984
v  -9.0780 27.7050 -20.3776
v  -9.0780 3.9210 -20.3776
v  -12.7045 27.7050 -23.4796
v  -12.7045 3.9210 -23.4796
v  -17.1529 27.7050 -25.1301
v  -17.1529 3.9210 -25.1301
v  -21.8869 3.9210 -25.1301
v  -21.8869 27.7050 -25.1301
v  -26.3354 3.9210 -23.4796
v  -26.3354 27.7050 -23.4796
v  -29.9618 27.7050 -20.3776
v  -29.9618 3.9210 -20.3776
v  -32.3288 3.9210 -16.1984
v  -32.3288 27.7050 -16.1984
v  -33.1508 27.7050 -11.4459
v  -33.1508 3.9210 -11.4459
v  -32.3288 3.9210 -6.6934
v  -32.3288 27.7050 -6.6934
v  -29.9618 27.7050 -2.5142
v  -29.9618 3.9210 -2.5142
v  -26.3354 3.9210 0.5877
v  -21.8869 3.9210 2.2383
v  -17.1529 27.7050 2.2383
v  -17.1529 3.9210 2.2383
v  -12.7045 3.9210 0.5877
v  -12.7045 27.7050 0.5877
v  -9.0780 3.9210 -2.5142
v  -9.0780 27.7050 -2.5142
# 72 vertices

vn 0.7660 0.0000 -0.6428
vn 0.9397 0.0000 -0.3420
vn 0.5000 0.0000 -0.8660
vn 0.1736 0.0000 -0.9848
vn -0.7660 0.0000 -0.6428
vn -0.5000 0.0000 -0.8660
vn -1.0000 0.0000 -0.0000
vn -0.9397 0.0000 -0.3420
vn -0.7660 0.0000 0.6428
vn -0.9397 0.0000 0.3420
vn -0.5000 0.0000 0.8660
vn -0.1736 0.0000 0.9848
vn 0.7660 0.0000 0.6428
vn 0.5000 0.0000 0.8660
vn 0.9397 0.0000 0.3420
vn 1.0000 0.0000 0.0000
vn -0.1736 0.0000 -0.9848
vn 0.1736 0.0000 0.9848
vn 0.0000 -1.0000 -0.0000
vn 0.0000 1.0000 -0.0000
# 20 vertex normals

vt 0.8611 1.0000 1.0000
vt 0.8056 1.0000 1.0000
vt 0.8056 -0.0000 1.0000
vt 0.8611 -0.0000 1.0000
vt 0.9167 1.0000 1.0000
vt 0.9167 -0.0000 1.0000
vt 0.9167 0.0000 1.0000
vt 0.9722 -0.0000 1.0000
vt 0.9722 1.0000 1.0000
vt 0.1389 1.0000 1.0000
vt 0.0833 1.0000 1.0000
vt 0.0833 0.0000 1.0000
vt 0.1389 0.0000 1.0000
vt 0.2500 1.0000 1.0000
vt 0.1944 1.0000 1.0000
vt 0.1944 -0.0000 1.0000
vt 0.2500 -0.0000 1.0000
vt 0.3611 1.0000 1.0000
vt 0.3056 1.0000 1.0000
vt 0.3056 -0.0000 1.0000
vt 0.3611 0.0000 1.0000
vt 0.4167 1.0000 1.0000
vt 0.3611 -0.0000 1.0000
vt 0.4167 -0.0000 1.0000
vt 0.4722 1.0000 1.0000
vt 0.4167 0.0000 1.0000
vt 0.4722 -0.0000 1.0000
vt 0.6389 1.0000 1.0000
vt 0.5833 1.0000 1.0000
vt 0.5833 0.0000 1.0000
vt 0.6389 0.0000 1.0000
vt 0.6944 1.0000 1.0000
vt 0.6944 -0.0000 1.0000
vt 0.7500 1.0000 1.0000
vt 0.7500 0.0000 1.0000
vt 0.8056 0.0000 1.0000
vt 1.0278 1.0000 1.0000
vt 0.9722 0.0000 1.0000
vt 1.0278 0.0000 1.0000
vt 0.0278 1.0000 1.0000
vt 0.0278 0.0000 1.0000
vt 0.1944 0.0000 1.0000
vt 0.2500 0.0000 1.0000
vt 0.3056 0.0000 1.0000
vt 0.5278 1.0000 1.0000
vt 0.4722 0.0000 1.0000
vt 0.5278 0.0000 1.0000
vt 0.9924 0.5868 -0.2500
vt 0.6710 0.9698 -0.2500
vt 0.8214 0.8830 -0.2500
vt 0.9330 0.7500 -0.2500
vt 0.8353 0.3075 0.2500
vt 0.9330 0.2500 0.2500
vt 0.9924 0.4132 0.2500
vt 0.8814 0.4340 0.2500
vt 0.6944 0.0000 1.0000
vt 0.6944 0.7875 1.0000
vt 0.7500 0.7875 1.0000
vt 0.8056 0.7875 1.0000
vt 0.8611 0.7875 1.0000
vt 0.9167 0.7875 1.0000
vt 0.9722 0.7875 1.0000
vt 1.0278 -0.0000 1.0000
vt 1.0278 0.7875 1.0000
vt 0.0833 -0.0000 1.0000
vt 0.0278 0.7875 1.0000
vt 0.0833 0.7875 1.0000
vt 0.1389 0.7875 1.0000
vt 0.1389 -0.0000 1.0000
vt 0.1944 0.7875 1.0000
vt 0.2500 0.7875 1.0000
vt 0.3056 0.7875 1.0000
vt 0.3611 0.7875 1.0000
vt 0.4167 0.7875 1.0000
vt 0.4722 0.7875 1.0000
vt 0.5278 0.7875 1.0000
vt 0.5833 -0.0000 1.0000
vt 0.5833 0.7875 1.0000
vt 0.6389 0.7875 1.0000
vt 0.6389 -0.0000 1.0000
vt 0.0076 0.4132 -0.2500
vt 0.3290 0.0302 -0.2500
vt 0.1786 0.1170 -0.2500
vt 0.0670 0.2500 -0.2500
vt 0.6710 0.0302 -0.2500
vt 0.5000 -0.0000 -0.2500
vt 0.9330 0.2500 -0.2500
vt 0.8214 0.1170 -0.2500
vt 0.9924 0.4132 -0.2500
vt 0.0076 0.5868 -0.2500
vt 0.0670 0.7500 -0.2500
vt 0.1786 0.8830 -0.2500
vt 0.3290 0.9698 -0.2500
vt 0.5000 1.0000 -0.2500
vt 0.3672 0.8655 0.2500
vt 0.4997 0.8888 0.2500
vt 0.5000 1.0000 0.2500
vt 0.3290 0.9698 0.2500
vt 0.1786 0.8830 0.2500
vt 0.2506 0.7982 0.2500
vt 0.6323 0.8655 0.2500
vt 0.6710 0.9698 0.2500
vt 0.0670 0.7500 0.2500
vt 0.1641 0.6951 0.2500
vt 0.7488 0.7982 0.2500
vt 0.8214 0.8830 0.2500
vt 0.0076 0.5868 0.2500
vt 0.1181 0.5686 0.2500
vt 0.8353 0.6951 0.2500
vt 0.9330 0.7500 0.2500
vt 0.0076 0.4132 0.2500
vt 0.1181 0.4340 0.2500
vt 0.8814 0.5686 0.2500
vt 0.9924 0.5868 0.2500
vt 0.0670 0.2500 0.2500
vt 0.1641 0.3075 0.2500
vt 0.1786 0.1170 0.2500
vt 0.2506 0.2044 0.2500
vt 0.3290 0.0302 0.2500
vt 0.3672 0.1372 0.2500
vt 0.5000 -0.0000 0.2500
vt 0.4997 0.1138 0.2500
vt 0.6710 0.0302 0.2500
vt 0.6323 0.1372 0.2500
vt 0.8214 0.1170 0.2500
vt 0.7488 0.2044 0.2500
# 126 texture coords

g Cylinder001
usemtl 01___Default
s 8
f 1/1/1 2/2/2 3/3/2 4/4/1 
f 5/5/3 1/1/1 4/4/1 6/6/3 
f 5/5/3 6/7/3 7/8/4 8/9/4 
f 9/10/5 10/11/6 11/12/6 12/13/5 
f 13/14/7 14/15/8 15/16/8 16/17/7 
f 17/18/9 18/19/10 19/20/10 20/21/9 
f 21/22/11 17/18/9 20/23/9 22/24/11 
f 23/25/12 21/22/11 22/26/11 24/27/12 
f 25/28/13 26/29/14 27/30/14 28/31/13 
f 29/32/15 25/28/13 28/31/13 30/33/15 
f 31/34/16 29/32/15 30/33/15 32/35/16 
f 2/2/2 31/34/16 32/35/16 3/36/2 
f 33/37/17 8/9/4 7/38/4 34/39/17 
f 10/11/6 33/40/17 34/41/17 11/12/6 
f 14/15/8 9/10/5 12/13/5 15/42/8 
f 18/19/10 13/14/7 16/43/7 19/44/10 
f 35/45/18 23/25/12 24/46/12 36/47/18 
f 26/29/14 35/45/18 36/47/18 27/30/14 
s 1
f 36/48/19 30/49/19 28/50/19 27/51/19 
f 37/52/20 21/53/20 23/54/20 38/55/20 
s 2
f 39/35/7 40/56/8 41/57/8 42/58/7 
f 43/36/10 39/35/7 42/58/7 44/59/10 
f 43/3/10 44/59/10 45/60/9 46/4/9 
f 46/4/9 45/60/9 47/61/11 48/6/11 
f 47/61/11 49/62/12 50/8/12 48/6/11 
f 51/63/18 50/38/12 49/62/12 52/64/18 
f 53/65/14 51/41/18 52/66/18 54/67/14 
f 54/67/14 55/68/13 56/69/13 53/12/14 
f 57/42/15 56/69/13 55/68/13 58/70/15 
f 57/16/15 58/70/15 59/71/16 60/17/16 
f 61/20/2 60/17/16 59/71/16 62/72/2 
f 62/72/2 63/73/1 64/23/1 61/20/2 
f 37/74/3 65/24/3 64/23/1 63/73/1 
f 65/24/3 37/74/3 38/75/4 66/27/4 
f 66/46/4 38/75/4 67/76/17 68/47/17 
f 69/77/6 68/47/17 67/76/17 70/78/6 
f 71/31/5 69/30/6 70/78/6 72/79/5 
f 41/57/8 40/33/8 71/80/5 72/79/5 
s 1
f 68/48/20 69/51/20 71/50/20 40/49/20 
f 34/81/19 15/82/19 12/83/19 11/84/19 
f 34/81/19 19/85/19 16/86/19 15/82/19 
f 34/81/19 22/87/19 20/88/19 19/85/19 
f 34/81/19 36/48/19 24/89/19 22/87/19 
f 7/90/19 6/91/19 36/48/19 34/81/19 
f 4/92/19 3/93/19 36/48/19 6/91/19 
f 32/94/19 30/49/19 36/48/19 3/93/19 
f 44/95/20 42/96/20 31/97/20 2/98/20 
f 1/99/20 45/100/20 44/95/20 2/98/20 
f 42/96/20 41/101/20 29/102/20 31/97/20 
f 5/103/20 47/104/20 45/100/20 1/99/20 
f 41/101/20 72/105/20 25/106/20 29/102/20 
f 8/107/20 49/108/20 47/104/20 5/103/20 
f 72/105/20 70/109/20 26/110/20 25/106/20 
f 33/111/20 52/112/20 49/108/20 8/107/20 
f 70/109/20 67/113/20 35/114/20 26/110/20 
f 10/115/20 54/116/20 52/112/20 33/111/20 
f 67/113/20 38/55/20 23/54/20 35/114/20 
f 9/117/20 55/118/20 54/116/20 10/115/20 
f 14/119/20 58/120/20 55/118/20 9/117/20 
f 13/121/20 59/122/20 58/120/20 14/119/20 
f 18/123/20 62/124/20 59/122/20 13/121/20 
f 17/125/20 63/126/20 62/124/20 18/123/20 
f 21/53/20 37/52/20 63/126/20 17/125/20 
f 56/83/20 50/90/20 51/81/20 53/84/20 
f 57/82/20 60/86/20 50/90/20 56/83/20 
f 61/85/20 64/88/20 50/90/20 60/86/20 
f 65/87/20 66/89/20 50/90/20 64/88/20 
f 68/48/20 48/91/20 50/90/20 66/89/20 
f 68/48/20 43/93/20 46/92/20 48/91/20 
f 68/48/20 40/49/20 39/94/20 43/93/20 
# 70 polygons

#
# object Cylinder002
#

v  -5.7624 4.1108 -16.3999
v  -16.9329 4.1108 -25.7731
v  -12.1740 4.1108 -24.0410
v  -8.2945 4.1108 -20.7857
v  -26.7560 4.1108 -24.0410
v  -21.9971 4.1108 -25.7731
v  -33.1676 4.1108 -16.3999
v  -30.6354 4.1108 -20.7857
v  -33.1676 4.1108 -6.4253
v  -34.0470 4.1108 -11.4126
v  -26.7560 4.1108 1.2158
v  -30.6355 4.1108 -2.0395
v  -16.9329 4.1108 2.9479
v  -21.9971 4.1108 2.9479
v  -8.2945 4.1108 -2.0395
v  -12.1740 4.1108 1.2158
v  -4.8830 4.1108 -11.4126
v  -5.7624 4.1108 -6.4253
v  -5.7624 16.7845 -16.3999
v  -4.8830 16.7845 -11.4126
v  -8.2945 16.7845 -20.7857
v  -12.1740 16.7845 -24.0410
v  -16.9329 16.7845 -25.7731
v  -21.9971 16.7845 -25.7731
v  -26.7560 16.7845 -24.0410
v  -30.6354 16.7845 -20.7857
v  -33.1676 16.7845 -16.3999
v  -34.0470 16.7845 -11.4126
v  -33.1676 16.7845 -6.4253
v  -30.6355 16.7845 -2.0395
v  -26.7560 16.7845 1.2158
v  -21.9971 16.7845 2.9479
v  -16.9329 16.7845 2.9479
v  -12.1740 16.7845 1.2158
v  -8.2945 16.7845 -2.0395
v  -5.7624 16.7845 -6.4253
# 36 vertices

vn 0.0000 -1.0000 -0.0000
vn 1.0000 0.0000 0.0000
vn 0.9397 0.0000 -0.3420
vn 0.7660 0.0000 -0.6428
vn 0.5000 0.0000 -0.8660
vn 0.1736 0.0000 -0.9848
vn -0.1736 0.0000 -0.9848
vn -0.5000 0.0000 -0.8660
vn -0.7660 0.0000 -0.6428
vn -0.9397 0.0000 -0.3420
vn -1.0000 0.0000 0.0000
vn -1.0000 0.0000 -0.0000
vn -0.9397 0.0000 0.3420
vn -0.7660 0.0000 0.6428
vn -0.5000 0.0000 0.8660
vn -0.1736 0.0000 0.9848
vn 0.1736 0.0000 0.9848
vn 0.5000 0.0000 0.8660
vn 0.7660 0.0000 0.6428
vn 0.9397 0.0000 0.3420
vn 0.0000 1.0000 -0.0000
# 21 vertex normals

vt 0.5000 0.0000 0.0000
vt 0.9722 0.0000 1.0000
vt 0.9167 0.0000 1.0000
vt 0.8611 0.0000 1.0000
vt 0.0833 0.0000 1.0000
vt 0.0278 0.0000 1.0000
vt -0.0278 0.0000 1.0000
vt 0.1944 0.0000 1.0000
vt 0.1389 0.0000 1.0000
vt 0.3056 0.0000 1.0000
vt 0.2500 0.0000 1.0000
vt 0.4167 0.0000 1.0000
vt 0.3611 0.0000 1.0000
vt 0.5278 0.0000 1.0000
vt 0.4722 0.0000 1.0000
vt 0.6389 0.0000 1.0000
vt 0.5833 0.0000 1.0000
vt 0.7500 0.0000 1.0000
vt 0.6944 0.0000 1.0000
vt 0.7500 0.8000 1.0000
vt 0.8056 0.8000 1.0000
vt 0.8056 1.0000 1.0000
vt 0.7500 1.0000 1.0000
vt 0.8611 0.8000 1.0000
vt 0.8611 1.0000 1.0000
vt 0.9167 0.8000 1.0000
vt 0.9167 1.0000 1.0000
vt 0.9722 0.8000 1.0000
vt 0.9722 1.0000 1.0000
vt -0.0278 0.8000 1.0000
vt 0.0278 0.8000 1.0000
vt 0.0278 1.0000 1.0000
vt -0.0278 1.0000 1.0000
vt 0.0833 0.8000 1.0000
vt 0.0833 1.0000 1.0000
vt 0.1389 0.8000 1.0000
vt 0.1389 1.0000 1.0000
vt 0.1944 0.8000 1.0000
vt 0.1944 1.0000 1.0000
vt 0.2500 0.8000 1.0000
vt 0.2500 1.0000 1.0000
vt 0.3056 0.8000 1.0000
vt 0.3056 1.0000 1.0000
vt 0.3611 0.8000 1.0000
vt 0.3611 1.0000 1.0000
vt 0.4167 0.8000 1.0000
vt 0.4167 1.0000 1.0000
vt 0.4722 0.8000 1.0000
vt 0.4722 1.0000 1.0000
vt 0.5278 0.8000 1.0000
vt 0.5278 1.0000 1.0000
vt 0.5833 0.8000 1.0000
vt 0.5833 1.0000 1.0000
vt 0.6389 0.8000 1.0000
vt 0.6389 1.0000 1.0000
vt 0.6944 0.8000 1.0000
vt 0.6944 1.0000 1.0000
vt 0.5000 1.0000 0.0000
vt -0.0004 1.0000 0.8794
# 59 texture coords

g Cylinder002
usemtl 07___Default
s 1
f 73/127/21 74/128/21 75/129/21 76/130/21 
f 73/127/21 77/131/21 78/132/21 74/133/21 
f 73/127/21 79/134/21 80/135/21 77/131/21 
f 73/127/21 81/136/21 82/137/21 79/134/21 
f 73/127/21 83/138/21 84/139/21 81/136/21 
f 73/127/21 85/140/21 86/141/21 83/138/21 
f 73/127/21 87/142/21 88/143/21 85/140/21 
f 73/127/21 89/144/21 90/145/21 87/142/21 
s 8
f 89/146/22 73/147/23 91/148/23 92/149/22 
f 73/147/23 76/150/24 93/151/24 91/148/23 
f 76/150/24 75/152/25 94/153/25 93/151/24 
f 75/152/25 74/154/26 95/155/26 94/153/25 
f 74/156/26 78/157/27 96/158/27 95/159/26 
f 78/157/27 77/160/28 97/161/28 96/158/27 
f 77/160/28 80/162/29 98/163/29 97/161/28 
f 80/162/29 79/164/30 99/165/30 98/163/29 
f 79/164/30 82/166/31 100/167/32 99/165/30 
f 82/166/31 81/168/33 101/169/33 100/167/32 
f 81/168/33 84/170/34 102/171/34 101/169/33 
f 84/170/34 83/172/35 103/173/35 102/171/34 
f 83/172/35 86/174/36 104/175/36 103/173/35 
f 86/174/36 85/176/37 105/177/37 104/175/36 
f 85/176/37 88/178/38 106/179/38 105/177/37 
f 88/178/38 87/180/39 107/181/39 106/179/38 
f 87/180/39 90/182/40 108/183/40 107/181/39 
f 90/182/40 89/146/22 92/149/22 108/183/40 
s 1
f 92/184/41 91/148/41 93/151/41 94/153/41 
f 92/184/41 94/185/41 95/159/41 96/158/41 
f 92/184/41 96/158/41 97/161/41 98/163/41 
f 92/184/41 98/163/41 99/165/41 100/167/41 
f 92/184/41 100/167/41 101/169/41 102/171/41 
f 92/184/41 102/171/41 103/173/41 104/175/41 
f 92/184/41 104/175/41 105/177/41 106/179/41 
f 92/184/41 106/179/41 107/181/41 108/183/41 
# 34 polygons

#
# object Box001
#

v  -29.5294 27.5790 -20.5591
v  -31.4192 27.5790 -23.1584
v  -28.1891 27.5790 -25.5068
v  -26.2993 27.5790 -22.9076
v  -29.5294 55.7154 -20.5591
v  -26.2993 55.7154 -22.9076
v  -28.1891 55.7154 -25.5068
v  -31.4192 55.7154 -23.1584
# 8 vertices

vn 0.0000 -1.0000 -0.0000
vn 0.0000 1.0000 -0.0000
vn 0.5880 0.0000 0.8088
vn 0.8088 0.0000 -0.5880
vn -0.5880 0.0000 -0.8088
vn -0.8088 0.0000 0.5880
# 6 vertex normals

vt 1.0000 0.0000 0.0000
vt 1.0000 1.0000 0.0000
vt 0.0000 1.0000 0.0000
vt 0.0000 0.0000 0.0000
# 4 texture coords

g Box001
usemtl 03___Default
s 2
f 109/186/42 110/187/42 111/188/42 112/189/42 
s 4
f 113/189/43 114/186/43 115/187/43 116/188/43 
s 8
f 109/189/44 112/186/44 114/187/44 113/188/44 
s 16
f 112/189/45 111/186/45 115/187/45 114/188/45 
s 32
f 111/189/46 110/186/46 116/187/46 115/188/46 
s 64
f 110/189/47 109/186/47 113/187/47 116/188/47 
# 6 polygons

#
# object Box002
#

v  -12.1730 27.5790 4.4760
v  -14.0628 27.5790 1.8767
v  -10.8327 27.5790 -0.4717
v  -8.9429 27.5790 2.1275
v  -12.1730 55.7154 4.4760
v  -8.9429 55.7154 2.1275
v  -10.8327 55.7154 -0.4717
v  -14.0628 55.7154 1.8767
# 8 vertices

vn 0.0000 -1.0000 -0.0000
vn 0.0000 1.0000 -0.0000
vn 0.5880 0.0000 0.8088
vn 0.8088 0.0000 -0.5880
vn -0.5880 0.0000 -0.8088
vn -0.8088 0.0000 0.5880
# 6 vertex normals

vt 1.0000 0.0000 0.0000
vt 1.0000 1.0000 0.0000
vt 0.0000 1.0000 0.0000
vt 0.0000 0.0000 0.0000
# 4 texture coords

g Box002
usemtl 03___Default
s 2
f 117/190/48 118/191/48 119/192/48 120/193/48 
s 4
f 121/193/49 122/190/49 123/191/49 124/192/49 
s 8
f 117/193/50 120/190/50 122/191/50 121/192/50 
s 16
f 120/193/51 119/190/51 123/191/51 122/192/51 
s 32
f 119/193/52 118/190/52 124/191/52 123/192/52 
s 64
f 118/193/53 117/190/53 121/191/53 124/192/53 
# 6 polygons

#
# object Pyramid001
#

v  -18.3859 70.0035 -11.0142
v  -22.3843 55.8036 21.0401
v  13.6115 55.8036 -6.5838
v  -14.3875 55.8036 -43.0685
v  -50.3834 55.8036 -15.4447
# 5 vertices

vn 0.3811 0.7799 0.4965
vn 0.5006 0.7758 -0.3842
vn -0.3811 0.7799 -0.4965
vn -0.5006 0.7758 0.3842
vn 0.0000 -1.0000 -0.0000
# 5 vertex normals

vt 0.5000 1.0000 0.0000
vt 0.0000 0.0000 0.0000
vt 1.0000 0.0000 0.0000
vt 0.0067 0.0000 0.0000
vt 1.0067 0.0000 0.0000
vt 1.0000 1.0000 0.0000
vt 0.5000 0.5000 0.0000
# 7 texture coords

g Pyramid001
usemtl 02___Default
s 4
f 125/194/54 126/195/54 127/196/54 
s 2
f 125/194/55 127/197/55 128/198/55 
s 16
f 125/194/56 128/195/56 129/196/56 
s 32
f 125/194/57 129/197/57 126/198/57 
s 8
f 127/199/58 126/200/58 128/196/58 
f 128/196/58 126/200/58 129/195/58 
# 0 polygons - 6 triangles

