# 3ds Max Wavefront OBJ Exporter v0.97b - (c)2007 guruware
# File Created: 14.12.2016 23:32:18

mtllib Fladen.mtl

#
# object Cylinder001
#

v  42.0217 -0.3317 -9.2319
v  40.0655 -0.1731 -11.4889
v  43.1318 -0.0869 -12.1573
v  43.6489 -0.3816 -9.2004
v  40.3012 0.1340 -14.3697
v  41.6759 0.3245 -15.0250
v  40.1429 0.3889 -14.3664
v  39.8745 0.1691 -11.4815
v  41.9368 -0.0768 -9.2286
v  37.1716 0.2582 -15.6568
v  39.2733 0.4882 -17.7144
v  36.3362 0.3686 -18.6593
v  36.8124 0.5270 -19.9757
v  36.2513 0.6235 -18.6560
v  36.9806 0.6004 -15.6493
v  34.0201 0.3148 -18.5404
v  35.1816 0.5636 -21.5592
v  33.0495 0.5701 -21.0890
v  33.5644 0.7019 -22.6277
v  33.0381 0.8250 -21.0857
v  33.9945 0.6570 -18.5330
v  30.9922 0.6761 -19.8790
v  31.1444 1.0454 -23.3440
v  29.2219 0.8677 -21.9345
v  28.8128 1.2225 -23.6200
v  29.2105 1.1226 -21.9261
v  30.9666 1.0183 -19.8715
v  28.2294 0.5382 -19.9025
v  27.4607 0.8615 -23.3677
v  26.3863 0.4682 -21.2667
v  26.1164 0.4990 -22.7818
v  26.3889 0.7129 -21.2767
v  28.2038 0.8804 -19.8836
v  25.4745 0.4073 -18.8929
v  23.8085 0.6717 -22.0568
v  22.8656 0.6973 -19.8444
v  21.6064 0.9606 -21.1962
v  22.8426 0.9319 -19.8830
v  25.4805 0.7266 -18.9268
v  23.0977 0.6135 -17.4967
v  20.5799 0.9466 -20.2030
v  21.6948 0.6277 -17.7382
v  20.4115 0.7987 -18.9005
v  21.6069 0.8640 -17.7508
v  23.0143 0.9328 -17.5422
v  23.2789 0.4161 -15.2134
v  20.7838 0.6860 -17.1119
v  22.1156 0.4701 -14.1613
v  21.1568 0.6145 -14.8489
v  22.0310 0.6995 -14.1353
v  23.1390 0.7393 -15.1890
v  23.4018 0.3540 -11.4804
v  20.9902 0.5903 -12.1231
v  22.3102 0.2217 -9.2143
v  21.0126 0.4135 -9.1608
v  22.2277 0.4129 -9.1713
v  23.3256 0.6578 -11.4387
v  24.1532 -0.1423 -7.0399
v  21.9527 -0.1159 -6.1885
v  23.7895 -0.5557 -4.5455
v  23.0317 -0.6382 -3.6566
v  23.6458 -0.3598 -4.4552
v  24.0180 0.0949 -6.9774
v  25.3311 -0.6895 -3.9529
v  23.4710 -0.7939 -2.0155
v  24.6164 -0.6302 -1.8758
v  23.7324 -0.6485 -0.8492
v  24.4752 -0.3618 -1.7642
v  25.1175 -0.3750 -3.8048
v  25.8945 -0.3375 -2.2287
v  24.2780 -0.2675 0.2583
v  25.8471 -0.0729 0.1104
v  25.1452 0.1067 1.3357
v  25.7895 0.2078 0.1594
v  25.7648 0.0627 -2.1184
v  27.4125 0.0657 -0.5620
v  26.3715 0.2314 2.4120
v  28.4195 0.1063 1.7950
v  28.0290 0.2314 3.2991
v  28.4081 0.3612 1.7983
v  27.3869 0.4078 -0.5546
v  30.2766 0.0657 0.4859
v  30.1902 0.2314 3.8091
v  32.5097 0.0229 2.6271
v  32.7053 0.1688 4.1375
v  32.4983 0.2778 2.6304
v  30.2510 0.4078 0.4933
v  34.2024 -0.1220 0.9887
v  35.4247 -0.0189 4.4796
v  36.9316 -0.2552 2.6361
v  37.9027 -0.2066 4.3769
v  36.9202 -0.0002 2.6394
v  34.1768 0.2201 0.9962
v  37.4045 -0.3097 0.1574
v  39.6941 -0.2691 3.3711
v  39.6831 -0.2552 0.2664
v  40.9317 -0.2066 1.6280
v  39.6717 -0.0002 0.2697
v  37.3788 0.0324 0.1648
v  38.9454 -0.1220 -2.8858
v  41.7487 -0.0189 -0.6865
v  41.1330 -0.1194 -4.0942
v  42.4235 0.0621 -3.3759
v  41.1216 0.1356 -4.0909
v  38.9198 0.2201 -2.8784
v  40.0601 -0.2544 -7.0536
v  43.2348 -0.1954 -6.2436
v  40.0344 0.0878 -7.0462
v  30.5357 0.0312 -9.4838
v  30.4331 0.4743 -9.4541
# 110 vertices

vn -0.0114 -0.9998 -0.0187
vn 0.0076 -0.9956 -0.0936
vn 0.9457 -0.0262 -0.3241
vn 0.9904 -0.1376 -0.0155
vn 0.0406 -0.9908 -0.1294
vn 0.8373 0.0757 -0.5415
vn 0.0708 0.9962 0.0514
vn 0.0907 0.9940 0.0607
vn 0.1316 0.9912 0.0164
vn 0.0298 -0.9963 -0.0809
vn 0.7354 0.0369 -0.6767
vn 0.0533 -0.9954 -0.0796
vn 0.6889 0.0185 -0.7246
vn 0.0445 0.9985 -0.0309
vn 0.0536 0.9985 0.0053
vn 0.0029 -0.9967 -0.0810
vn 0.6283 -0.0180 -0.7778
vn -0.0669 -0.9924 -0.1030
vn 0.4095 -0.0247 -0.9120
vn 0.1203 0.9927 -0.0055
vn 0.0573 0.9983 -0.0083
vn -0.0600 -0.9923 -0.1084
vn 0.2307 0.0711 -0.9704
vn 0.0535 -0.9875 -0.1480
vn -0.0765 0.2244 -0.9715
vn -0.0619 0.9973 0.0387
vn 0.0774 0.9969 0.0117
vn 0.1116 -0.9869 -0.1168
vn -0.2871 0.0215 -0.9577
vn 0.0391 -0.9970 -0.0667
vn -0.3176 -0.1808 -0.9308
vn -0.0743 0.9964 -0.0407
vn -0.1381 0.9901 0.0241
vn -0.0800 -0.9959 -0.0411
vn -0.3509 -0.0076 -0.9364
vn -0.1115 -0.9928 -0.0436
vn -0.5504 0.0989 -0.8290
vn 0.0563 0.9978 -0.0361
vn 0.0411 0.9984 -0.0394
vn -0.0457 -0.9957 -0.0800
vn -0.8736 0.0642 -0.4823
vn -0.0437 -0.9957 -0.0814
vn -0.9976 -0.0564 -0.0389
vn -0.1032 0.9909 0.0861
vn -0.0257 0.9993 0.0287
vn -0.0807 -0.9961 -0.0356
vn -0.9675 -0.0379 0.2499
vn -0.1131 -0.9934 -0.0171
vn -0.9942 -0.0037 0.1077
vn -0.0719 0.9973 0.0165
vn -0.0467 0.9985 0.0296
vn -0.0826 -0.9950 -0.0558
vn -0.9960 0.0423 0.0788
vn -0.1164 -0.9882 -0.0995
vn -0.9850 0.0854 0.1500
vn -0.0158 0.9922 0.1240
vn -0.0476 0.9968 0.0641
vn -0.0675 -0.9873 -0.1438
vn -0.9601 -0.0177 0.2792
vn -0.0629 -0.9883 -0.1388
vn -0.9496 -0.1608 0.2692
vn -0.1004 0.9748 0.1991
vn -0.0348 0.9845 0.1718
vn 0.0009 -0.9986 -0.0529
vn -0.9567 -0.2620 0.1271
vn 0.1971 -0.9704 0.1396
vn -0.8659 -0.2801 0.4144
vn -0.3688 0.9260 -0.0813
vn -0.1504 0.9843 0.0921
vn 0.2133 -0.9628 0.1657
vn -0.8217 -0.1267 0.5556
vn 0.1122 -0.9847 0.1336
vn -0.7163 0.0376 0.6968
vn -0.2133 0.9767 -0.0253
vn -0.3183 0.9456 -0.0678
vn 0.0463 -0.9963 0.0717
vn -0.5477 0.0228 0.8364
vn -0.0224 -0.9981 0.0569
vn -0.3461 -0.0016 0.9382
vn -0.0237 0.9979 0.0602
vn -0.0850 0.9959 0.0301
vn -0.0237 -0.9985 0.0492
vn -0.2005 0.0137 0.9796
vn -0.0547 -0.9959 0.0719
vn -0.1233 0.0392 0.9916
vn 0.0387 0.9977 0.0563
vn 0.0100 0.9985 0.0533
vn -0.0583 -0.9971 0.0499
vn -0.0488 0.0094 0.9988
vn -0.0465 -0.9979 0.0449
vn 0.2981 -0.0377 0.9538
vn 0.0734 0.9959 0.0530
vn 0.0654 0.9968 0.0450
vn 0.0079 -0.9999 0.0070
vn 0.6593 -0.0513 0.7501
vn 0.0609 -0.9977 -0.0314
vn 0.8750 -0.0395 0.4825
vn 0.0377 0.9959 0.0827
vn 0.0475 0.9971 0.0595
vn 0.0414 -0.9991 -0.0059
vn 0.9642 0.0196 0.2643
vn 0.0552 -0.9972 0.0506
vn 0.9651 0.0700 0.2522
vn 0.0735 0.9972 -0.0142
vn 0.0499 0.9978 0.0444
vn 0.0077 -0.9991 0.0426
vn 0.9838 -0.0461 0.1730
vn 0.0942 0.9953 -0.0244
vn -0.0238 -0.9995 0.0189
vn 0.0071 -0.9995 -0.0323
vn -0.0080 -0.9992 -0.0382
vn -0.0389 -0.9986 0.0352
vn 0.0232 -0.9984 -0.0511
vn -0.0194 -0.9996 -0.0215
vn -0.0577 -0.9983 0.0069
vn -0.0613 -0.9981 0.0068
vn -0.0533 -0.9985 0.0080
vn -0.0209 -0.9998 0.0029
vn -0.0038 -1.0000 0.0059
vn 0.0605 -0.9979 0.0250
vn 0.1636 -0.9841 0.0693
vn 0.2527 -0.9609 0.1128
vn 0.2526 -0.9609 0.1130
vn 0.1399 -0.9902 0.0027
vn -0.0316 -0.9865 -0.1604
vn -0.0329 -0.9872 -0.1561
vn -0.0264 -0.9943 -0.1030
vn -0.0327 -0.9985 -0.0446
vn -0.0460 -0.9989 -0.0109
vn -0.0031 -0.9980 -0.0631
vn 0.0100 -0.9965 -0.0827
vn -0.0209 -0.9984 -0.0532
vn -0.0835 -0.9965 -0.0023
vn -0.0690 -0.9976 -0.0028
vn 0.0320 -0.9983 -0.0483
vn 0.1230 -0.9895 -0.0754
vn 0.0583 -0.9956 -0.0730
vn -0.0606 -0.9961 -0.0645
vn -0.0896 -0.9938 -0.0656
vn -0.0391 -0.9982 -0.0463
vn 0.0118 -0.9995 -0.0293
vn -0.0084 -0.9989 -0.0458
vn -0.0319 -0.9959 -0.0848
vn -0.0371 -0.9965 -0.0748
vn -0.0312 -0.9994 -0.0180
vn 0.0476 0.9988 0.0148
vn 0.0479 0.9962 0.0730
vn 0.0029 0.9993 0.0384
vn 0.0486 0.9983 -0.0336
vn 0.0455 0.9963 0.0727
vn 0.0150 0.9992 0.0362
vn 0.0044 0.9998 0.0190
vn 0.0399 0.9986 0.0357
vn 0.0989 0.9937 0.0521
vn 0.0592 0.9967 0.0551
vn -0.0543 0.9969 0.0571
vn -0.1279 0.9896 0.0659
vn -0.0472 0.9982 0.0363
vn 0.0603 0.9982 -0.0049
vn 0.0759 0.9970 -0.0115
vn 0.0011 0.9985 0.0556
vn -0.0464 0.9943 0.0960
vn -0.0009 0.9989 0.0473
vn 0.0106 0.9995 0.0291
vn 0.0125 0.9988 0.0477
vn -0.0032 0.9923 0.1239
vn 0.0046 0.9866 0.1631
vn -0.0179 0.9899 0.1408
vn -0.1593 0.9872 -0.0015
vn -0.3127 0.9395 -0.1401
vn -0.2643 0.9576 -0.1145
vn -0.1581 0.9862 -0.0490
vn -0.0620 0.9980 -0.0138
vn -0.0050 0.9999 0.0091
vn 0.0157 0.9999 0.0070
vn 0.0460 0.9989 0.0084
vn 0.0653 0.9979 0.0009
vn 0.0571 0.9983 0.0085
vn 0.0245 0.9993 0.0282
vn -0.0047 0.9986 0.0532
vn -0.0009 0.9992 0.0398
vn 0.0409 0.9990 -0.0185
# 182 vertex normals

vt 0.7500 0.0000 1.0000
vt 0.7778 0.0000 1.0000
vt 0.7778 0.5000 1.0000
vt 0.7500 0.5000 1.0000
vt 0.8056 0.0000 1.0000
vt 0.8056 0.5000 1.0000
vt 0.8056 1.0000 1.0000
vt 0.7778 1.0000 1.0000
vt 0.7500 1.0000 1.0000
vt 0.8333 0.0000 1.0000
vt 0.8333 0.5000 1.0000
vt 0.8611 0.0000 1.0000
vt 0.8611 0.5000 1.0000
vt 0.8611 1.0000 1.0000
vt 0.8333 1.0000 1.0000
vt 0.8889 0.0000 1.0000
vt 0.8889 0.5000 1.0000
vt 0.9167 0.0000 1.0000
vt 0.9167 0.5000 1.0000
vt 0.9167 1.0000 1.0000
vt 0.8889 1.0000 1.0000
vt 0.9444 0.0000 1.0000
vt 0.9444 0.5000 1.0000
vt 0.9722 0.0000 1.0000
vt 0.9722 0.5000 1.0000
vt 0.9722 1.0000 1.0000
vt 0.9444 1.0000 1.0000
vt 1.0000 0.0000 1.0000
vt 1.0000 0.5000 1.0000
vt 1.0278 0.0000 1.0000
vt 1.0278 0.5000 1.0000
vt 1.0278 1.0000 1.0000
vt 1.0000 1.0000 1.0000
vt 0.0278 0.0000 1.0000
vt 0.0556 0.0000 1.0000
vt 0.0556 0.5000 1.0000
vt 0.0278 0.5000 1.0000
vt 0.0833 0.0000 1.0000
vt 0.0833 0.5000 1.0000
vt 0.0833 1.0000 1.0000
vt 0.0556 1.0000 1.0000
vt 0.0278 1.0000 1.0000
vt 0.1111 0.0000 1.0000
vt 0.1111 0.5000 1.0000
vt 0.1389 0.0000 1.0000
vt 0.1389 0.5000 1.0000
vt 0.1389 1.0000 1.0000
vt 0.1111 1.0000 1.0000
vt 0.1667 0.0000 1.0000
vt 0.1667 0.5000 1.0000
vt 0.1944 0.0000 1.0000
vt 0.1944 0.5000 1.0000
vt 0.1944 1.0000 1.0000
vt 0.1667 1.0000 1.0000
vt 0.2222 0.0000 1.0000
vt 0.2222 0.5000 1.0000
vt 0.2500 0.0000 1.0000
vt 0.2500 0.5000 1.0000
vt 0.2500 1.0000 1.0000
vt 0.2222 1.0000 1.0000
vt 0.2778 0.0000 1.0000
vt 0.2778 0.5000 1.0000
vt 0.3056 0.0000 1.0000
vt 0.3056 0.5000 1.0000
vt 0.3056 1.0000 1.0000
vt 0.2778 1.0000 1.0000
vt 0.3333 0.0000 1.0000
vt 0.3333 0.5000 1.0000
vt 0.3611 0.0000 1.0000
vt 0.3611 0.5000 1.0000
vt 0.3611 1.0000 1.0000
vt 0.3333 1.0000 1.0000
vt 0.3889 0.0000 1.0000
vt 0.3889 0.5000 1.0000
vt 0.4167 0.0000 1.0000
vt 0.4167 0.5000 1.0000
vt 0.4167 1.0000 1.0000
vt 0.3889 1.0000 1.0000
vt 0.4444 0.0000 1.0000
vt 0.4444 0.5000 1.0000
vt 0.4722 0.0000 1.0000
vt 0.4722 0.5000 1.0000
vt 0.4722 1.0000 1.0000
vt 0.4444 1.0000 1.0000
vt 0.5000 0.0000 1.0000
vt 0.5000 0.5000 1.0000
vt 0.5278 0.0000 1.0000
vt 0.5278 0.5000 1.0000
vt 0.5278 1.0000 1.0000
vt 0.5000 1.0000 1.0000
vt 0.5556 0.0000 1.0000
vt 0.5556 0.5000 1.0000
vt 0.5833 0.0000 1.0000
vt 0.5833 0.5000 1.0000
vt 0.5833 1.0000 1.0000
vt 0.5556 1.0000 1.0000
vt 0.6111 0.0000 1.0000
vt 0.6111 0.5000 1.0000
vt 0.6389 0.0000 1.0000
vt 0.6389 0.5000 1.0000
vt 0.6389 1.0000 1.0000
vt 0.6111 1.0000 1.0000
vt 0.6667 0.0000 1.0000
vt 0.6667 0.5000 1.0000
vt 0.6944 0.0000 1.0000
vt 0.6944 0.5000 1.0000
vt 0.6944 1.0000 1.0000
vt 0.6667 1.0000 1.0000
vt 0.7222 0.0000 1.0000
vt 0.7222 0.5000 1.0000
vt 0.7222 1.0000 1.0000
vt 0.6710 0.9698 -0.2500
vt 0.7462 0.9264 -0.2500
vt 0.5000 0.5000 -0.2500
vt 0.5855 0.9849 -0.2500
vt 0.8214 0.8830 -0.2500
vt 0.8772 0.8165 -0.2500
vt 0.9330 0.7500 -0.2500
vt 0.9627 0.6684 -0.2500
vt 0.9924 0.5868 -0.2500
vt 0.9924 0.5000 -0.2500
vt 0.9924 0.4132 -0.2500
vt 0.9627 0.3316 -0.2500
vt 0.9330 0.2500 -0.2500
vt 0.8772 0.1835 -0.2500
vt 0.8214 0.1170 -0.2500
vt 0.7462 0.0736 -0.2500
vt 0.6710 0.0302 -0.2500
vt 0.5855 0.0151 -0.2500
vt 0.5000 0.0000 -0.2500
vt 0.4145 0.0151 -0.2500
vt 0.3290 0.0302 -0.2500
vt 0.2538 0.0736 -0.2500
vt 0.1786 0.1170 -0.2500
vt 0.1228 0.1835 -0.2500
vt 0.0670 0.2500 -0.2500
vt 0.0373 0.3316 -0.2500
vt 0.0076 0.4132 -0.2500
vt 0.0076 0.5000 -0.2500
vt 0.0076 0.5868 -0.2500
vt 0.0373 0.6684 -0.2500
vt 0.0670 0.7500 -0.2500
vt 0.1228 0.8165 -0.2500
vt 0.1786 0.8830 -0.2500
vt 0.2538 0.9264 -0.2500
vt 0.3290 0.9698 -0.2500
vt 0.4145 0.9849 -0.2500
vt 0.5000 1.0000 -0.2500
vt 0.5000 1.0000 0.2500
vt 0.4145 0.9849 0.2500
vt 0.5000 0.5000 0.2500
vt 0.5855 0.9849 0.2500
vt 0.3290 0.9698 0.2500
vt 0.2538 0.9264 0.2500
vt 0.1786 0.8830 0.2500
vt 0.1228 0.8165 0.2500
vt 0.0670 0.7500 0.2500
vt 0.0373 0.6684 0.2500
vt 0.0076 0.5868 0.2500
vt 0.0076 0.5000 0.2500
vt 0.0076 0.4132 0.2500
vt 0.0373 0.3316 0.2500
vt 0.0670 0.2500 0.2500
vt 0.1228 0.1835 0.2500
vt 0.1786 0.1170 0.2500
vt 0.2538 0.0736 0.2500
vt 0.3290 0.0302 0.2500
vt 0.4145 0.0151 0.2500
vt 0.5000 0.0000 0.2500
vt 0.5855 0.0151 0.2500
vt 0.6710 0.0302 0.2500
vt 0.7462 0.0736 0.2500
vt 0.8214 0.1170 0.2500
vt 0.8772 0.1835 0.2500
vt 0.9330 0.2500 0.2500
vt 0.9627 0.3316 0.2500
vt 0.9924 0.4132 0.2500
vt 0.9924 0.5000 0.2500
vt 0.9924 0.5868 0.2500
vt 0.9627 0.6684 0.2500
vt 0.9330 0.7500 0.2500
vt 0.8772 0.8165 0.2500
vt 0.8214 0.8830 0.2500
vt 0.7462 0.9264 0.2500
vt 0.6710 0.9698 0.2500
# 185 texture coords

g Cylinder001
usemtl 01___Default
s 8
f 1/1/1 2/2/2 3/3/3 4/4/4 
f 5/5/5 6/6/6 3/3/3 2/2/2 
f 7/7/7 8/8/8 3/3/3 6/6/6 
f 9/9/9 4/4/4 3/3/3 8/8/8 
f 5/5/5 10/10/10 11/11/11 6/6/6 
f 12/12/12 13/13/13 11/11/11 10/10/10 
f 14/14/14 15/15/15 11/11/11 13/13/13 
f 7/7/7 6/6/6 11/11/11 15/15/15 
f 12/12/12 16/16/16 17/17/17 13/13/13 
f 18/18/18 19/19/19 17/17/17 16/16/16 
f 20/20/20 21/21/21 17/17/17 19/19/19 
f 14/14/14 13/13/13 17/17/17 21/21/21 
f 18/18/18 22/22/22 23/23/23 19/19/19 
f 24/24/24 25/25/25 23/23/23 22/22/22 
f 26/26/26 27/27/27 23/23/23 25/25/25 
f 20/20/20 19/19/19 23/23/23 27/27/27 
f 24/24/24 28/28/28 29/29/29 25/25/25 
f 30/30/30 31/31/31 29/29/29 28/28/28 
f 32/32/32 33/33/33 29/29/29 31/31/31 
f 26/26/26 25/25/25 29/29/29 33/33/33 
f 30/34/30 34/35/34 35/36/35 31/37/31 
f 36/38/36 37/39/37 35/36/35 34/35/34 
f 38/40/38 39/41/39 35/36/35 37/39/37 
f 32/42/32 31/37/31 35/36/35 39/41/39 
f 36/38/36 40/43/40 41/44/41 37/39/37 
f 42/45/42 43/46/43 41/44/41 40/43/40 
f 44/47/44 45/48/45 41/44/41 43/46/43 
f 38/40/38 37/39/37 41/44/41 45/48/45 
f 42/45/42 46/49/46 47/50/47 43/46/43 
f 48/51/48 49/52/49 47/50/47 46/49/46 
f 50/53/50 51/54/51 47/50/47 49/52/49 
f 44/47/44 43/46/43 47/50/47 51/54/51 
f 48/51/48 52/55/52 53/56/53 49/52/49 
f 54/57/54 55/58/55 53/56/53 52/55/52 
f 56/59/56 57/60/57 53/56/53 55/58/55 
f 50/53/50 49/52/49 53/56/53 57/60/57 
f 54/57/54 58/61/58 59/62/59 55/58/55 
f 60/63/60 61/64/61 59/62/59 58/61/58 
f 62/65/62 63/66/63 59/62/59 61/64/61 
f 56/59/56 55/58/55 59/62/59 63/66/63 
f 60/63/60 64/67/64 65/68/65 61/64/61 
f 66/69/66 67/70/67 65/68/65 64/67/64 
f 68/71/68 69/72/69 65/68/65 67/70/67 
f 62/65/62 61/64/61 65/68/65 69/72/69 
f 66/69/66 70/73/70 71/74/71 67/70/67 
f 72/75/72 73/76/73 71/74/71 70/73/70 
f 74/77/74 75/78/75 71/74/71 73/76/73 
f 68/71/68 67/70/67 71/74/71 75/78/75 
f 72/75/72 76/79/76 77/80/77 73/76/73 
f 78/81/78 79/82/79 77/80/77 76/79/76 
f 80/83/80 81/84/81 77/80/77 79/82/79 
f 74/77/74 73/76/73 77/80/77 81/84/81 
f 78/81/78 82/85/82 83/86/83 79/82/79 
f 84/87/84 85/88/85 83/86/83 82/85/82 
f 86/89/86 87/90/87 83/86/83 85/88/85 
f 80/83/80 79/82/79 83/86/83 87/90/87 
f 84/87/84 88/91/88 89/92/89 85/88/85 
f 90/93/90 91/94/91 89/92/89 88/91/88 
f 92/95/92 93/96/93 89/92/89 91/94/91 
f 86/89/86 85/88/85 89/92/89 93/96/93 
f 90/93/90 94/97/94 95/98/95 91/94/91 
f 96/99/96 97/100/97 95/98/95 94/97/94 
f 98/101/98 99/102/99 95/98/95 97/100/97 
f 92/95/92 91/94/91 95/98/95 99/102/99 
f 96/99/96 100/103/100 101/104/101 97/100/97 
f 102/105/102 103/106/103 101/104/101 100/103/100 
f 104/107/104 105/108/105 101/104/101 103/106/103 
f 98/101/98 97/100/97 101/104/101 105/108/105 
f 102/105/102 106/109/106 107/110/107 103/106/103 
f 1/1/1 4/4/4 107/110/107 106/109/106 
f 9/9/9 108/111/108 107/110/107 4/4/4 
f 104/107/104 103/106/103 107/110/107 108/111/108 
s 1
f 102/112/109 100/113/110 109/114/111 106/115/112 
f 96/116/113 94/117/114 109/114/111 100/113/110 
f 90/118/115 88/119/116 109/114/111 94/117/114 
f 84/120/117 82/121/118 109/114/111 88/119/116 
f 78/122/119 76/123/120 109/114/111 82/121/118 
f 72/124/121 70/125/122 109/114/111 76/123/120 
f 66/126/123 64/127/124 109/114/111 70/125/122 
f 60/128/125 58/129/126 109/114/111 64/127/124 
f 54/130/127 52/131/128 109/114/111 58/129/126 
f 48/132/129 46/133/130 109/114/111 52/131/128 
f 42/134/131 40/135/132 109/114/111 46/133/130 
f 36/136/133 34/137/134 109/114/111 40/135/132 
f 30/138/135 28/139/136 109/114/111 34/137/134 
f 24/140/137 22/141/138 109/114/111 28/139/136 
f 18/142/139 16/143/140 109/114/111 22/141/138 
f 12/144/141 10/145/142 109/114/111 16/143/140 
f 5/146/143 2/147/144 109/114/111 10/145/142 
f 1/148/145 106/115/112 109/114/111 2/147/144 
f 9/149/146 8/150/147 110/151/148 108/152/149 
f 7/153/150 15/154/151 110/151/148 8/150/147 
f 14/155/152 21/156/153 110/151/148 15/154/151 
f 20/157/154 27/158/155 110/151/148 21/156/153 
f 26/159/156 33/160/157 110/151/148 27/158/155 
f 32/161/158 39/162/159 110/151/148 33/160/157 
f 38/163/160 45/164/161 110/151/148 39/162/159 
f 44/165/162 51/166/163 110/151/148 45/164/161 
f 50/167/164 57/168/165 110/151/148 51/166/163 
f 56/169/166 63/170/167 110/151/148 57/168/165 
f 62/171/168 69/172/169 110/151/148 63/170/167 
f 68/173/170 75/174/171 110/151/148 69/172/169 
f 74/175/172 81/176/173 110/151/148 75/174/171 
f 80/177/174 87/178/175 110/151/148 81/176/173 
f 86/179/176 93/180/177 110/151/148 87/178/175 
f 92/181/178 99/182/179 110/151/148 93/180/177 
f 98/183/180 105/184/181 110/151/148 99/182/179 
f 104/185/182 108/152/149 110/151/148 105/184/181 
# 108 polygons

