# 3ds Max Wavefront OBJ Exporter v0.97b - (c)2007 guruware
# File Created: 18.12.2016 17:14:13

mtllib Fladen.mtl

#
# object Cylinder001
#

v  42.0217 -0.3317 -9.2319
v  40.0655 -0.1731 -11.4889
v  43.1318 -0.0869 -12.1573
v  43.6489 -0.3816 -9.2004
v  39.2034 -0.2944 -13.0768
v  41.6759 1.1254 -15.0250
v  39.0451 -0.0395 -13.0735
v  39.8745 0.1691 -11.4815
v  41.9368 -0.0768 -9.2286
v  36.0738 0.6307 -14.3638
v  39.2733 1.2891 -17.7144
v  35.6161 1.1947 -17.1340
v  36.8124 1.3279 -19.9757
v  35.5313 1.4496 -17.1307
v  35.8828 0.9729 -14.3564
v  33.3001 1.1409 -17.0151
v  35.3446 1.0138 -20.8964
v  33.0495 0.5701 -21.0890
v  33.5644 0.7019 -22.6277
v  32.5775 1.7952 -19.7714
v  33.2446 1.3662 -17.9446
v  30.9922 1.4771 -19.8790
v  31.1444 1.0454 -23.3440
v  29.2219 0.8677 -21.9345
v  28.8128 1.2225 -23.6200
v  28.8505 2.2326 -21.3134
v  30.7190 1.9913 -20.3790
v  28.2294 1.3391 -19.9025
v  27.4607 0.8615 -23.3677
v  25.5884 0.3516 -21.1322
v  26.1164 0.4990 -22.3255
v  26.4620 1.9957 -20.8109
v  27.7777 1.9735 -21.2787
v  25.4745 1.2082 -19.8644
v  24.5601 1.2833 -21.9693
v  22.8656 0.6973 -20.8159
v  22.1903 1.4516 -21.3188
v  23.0442 3.3877 -20.5690
v  26.2640 1.0228 -20.0714
v  23.0977 0.6135 -18.4682
v  20.5799 0.9466 -20.2030
v  21.6948 0.6277 -17.7382
v  20.4115 0.7987 -18.9005
v  22.5828 2.5149 -17.0629
v  22.7247 3.0669 -18.2516
v  23.2789 0.4161 -16.1848
v  20.7838 0.6860 -17.1119
v  22.1156 0.4701 -14.1613
v  21.1568 0.6145 -14.8489
v  22.8493 1.4292 -13.8827
v  22.2609 1.6541 -15.5446
v  23.4018 0.3540 -11.4804
v  20.9902 0.5723 -12.1231
v  22.3102 0.2037 -9.2143
v  21.0126 0.3955 -9.1608
v  22.2277 2.4484 -9.1713
v  23.3256 1.6102 -11.4387
v  24.1532 -0.1423 -7.0399
v  21.9527 -0.1159 -6.1885
v  23.7895 -0.5557 -4.5455
v  23.0317 -0.6382 -3.6566
v  23.6458 -0.3598 -4.4552
v  24.0180 0.0949 -6.9774
v  25.3311 -0.6895 -3.9529
v  23.4710 -0.7939 -2.0155
v  24.6164 -0.6302 -1.8758
v  23.7324 -0.6485 -0.8492
v  24.4752 -0.3618 -1.7642
v  25.1175 -0.3750 -3.8048
v  25.8945 -0.3375 -2.2287
v  24.2780 -0.2675 0.2583
v  25.8471 0.4925 0.1104
v  25.1452 0.1067 1.3357
v  25.7895 0.7732 0.1594
v  25.7648 0.6281 -2.1184
v  27.4125 0.6311 -0.5620
v  26.3715 0.2314 2.4120
v  28.4195 0.6717 1.7950
v  28.0290 0.2314 3.2991
v  28.4081 0.9266 1.7983
v  27.3869 0.9732 -0.5546
v  30.2766 0.6311 0.4859
v  30.1902 0.2314 3.8091
v  32.5097 0.5883 2.6271
v  32.7053 0.7342 4.1375
v  32.4983 0.8432 2.6304
v  30.2510 0.9732 0.4933
v  34.2024 0.4434 0.9887
v  35.4247 -0.0189 4.4796
v  36.9316 -0.2552 2.6361
v  37.9027 -0.2066 4.3769
v  36.9202 -0.0002 2.6394
v  34.1768 0.7855 0.9962
v  37.4045 -0.3097 0.1574
v  39.6941 -0.2691 3.3711
v  39.6831 0.2905 0.2664
v  40.9317 0.3392 1.6280
v  39.6717 0.5455 0.2697
v  37.3788 0.0324 0.1648
v  38.9454 0.4237 -2.8858
v  41.7487 0.5269 -0.6865
v  41.1330 -0.1194 -4.0942
v  42.4235 0.0621 -3.3759
v  41.1216 0.1356 -4.0909
v  38.9198 0.7658 -2.8784
v  40.0601 -0.2544 -7.0536
v  43.2348 -0.1954 -6.2436
v  40.0344 0.0878 -7.0462
v  30.5357 0.0312 -9.4838
v  30.4331 2.8571 -9.4541
# 110 vertices

vn -0.0114 -0.9998 -0.0187
vn 0.0293 -0.9996 0.0055
vn 0.9019 -0.0125 -0.4317
vn 0.9904 -0.1376 -0.0155
vn 0.0673 -0.9593 -0.2742
vn 0.8072 0.3991 -0.4350
vn -0.0011 0.9762 0.2171
vn 0.0600 0.9944 -0.0873
vn 0.1316 0.9912 0.0164
vn -0.0865 -0.9587 -0.2710
vn 0.7379 0.1412 -0.6600
vn 0.0307 -0.9979 -0.0575
vn 0.5967 0.0798 -0.7985
vn 0.0197 0.9998 0.0105
vn 0.1366 0.9639 0.2287
vn 0.0790 -0.9941 0.0742
vn 0.9276 -0.0295 -0.3725
vn -0.0163 -0.9993 0.0333
vn 0.4702 -0.1853 -0.8629
vn 0.2359 0.9620 -0.1376
vn 0.1413 0.9898 -0.0176
vn -0.1248 -0.9852 0.1173
vn 0.3522 -0.1513 -0.9236
vn 0.0241 -0.9995 0.0180
vn -0.0165 0.0045 -0.9999
vn 0.0029 0.9293 -0.3693
vn 0.2160 0.9387 -0.2685
vn 0.1371 -0.9849 0.1054
vn -0.3423 -0.2752 -0.8984
vn -0.3722 -0.9270 0.0470
vn -0.2243 -0.5510 -0.8038
vn -0.4130 0.8995 -0.1427
vn -0.1852 0.8788 -0.4397
vn -0.3038 -0.9477 0.0981
vn -0.0210 -0.0781 -0.9967
vn -0.1289 -0.8923 -0.4326
vn -0.4423 -0.0591 -0.8949
vn -0.3760 0.7546 -0.5378
vn -0.1417 0.9556 0.2584
vn -0.0857 -0.9941 -0.0665
vn -0.8850 -0.2757 -0.3751
vn -0.0782 -0.9948 -0.0658
vn -0.9498 -0.3091 -0.0479
vn -0.7198 0.6678 0.1893
vn -0.7490 0.6527 0.1141
vn -0.0958 -0.9949 -0.0320
vn -0.9147 -0.3530 0.1969
vn -0.1158 -0.9931 -0.0172
vn -0.9780 -0.1901 0.0857
vn -0.4774 0.8766 0.0601
vn -0.7271 0.6149 0.3053
vn -0.0742 -0.9955 -0.0597
vn -0.9510 -0.2073 -0.2294
vn -0.1142 -0.9887 -0.0972
vn -0.9160 -0.3874 0.1039
vn -0.6225 0.7692 0.1440
vn -0.3275 0.9084 -0.2600
vn -0.0662 -0.9879 -0.1405
vn -0.5920 -0.2797 0.7558
vn -0.0629 -0.9883 -0.1388
vn -0.9496 -0.1608 0.2692
vn -0.1004 0.9748 0.1991
vn 0.0874 0.8814 0.4643
vn 0.0009 -0.9986 -0.0529
vn -0.9567 -0.2620 0.1271
vn 0.1971 -0.9704 0.1396
vn -0.8659 -0.2801 0.4144
vn -0.4765 0.8746 -0.0895
vn -0.1504 0.9843 0.0921
vn 0.3491 -0.9025 0.2523
vn -0.7088 -0.2780 0.6484
vn 0.2745 -0.9613 0.0217
vn -0.6436 -0.3304 0.6904
vn -0.3528 0.9236 0.1502
vn -0.5972 0.7988 -0.0726
vn 0.1103 -0.9894 -0.0943
vn -0.5044 -0.2382 0.8300
vn 0.0650 -0.9850 -0.1600
vn -0.3282 -0.3197 0.8889
vn -0.1054 0.9584 0.2652
vn -0.1454 0.9704 0.1929
vn -0.0130 -0.9927 -0.1197
vn -0.1942 -0.2427 0.9505
vn -0.0251 -0.9996 -0.0086
vn -0.0923 0.1728 0.9806
vn 0.0088 0.9905 0.1369
vn 0.0002 0.9759 0.2183
vn -0.1798 -0.9814 -0.0670
vn -0.0752 -0.1023 0.9919
vn -0.0841 -0.9964 0.0137
vn 0.2981 -0.0377 0.9538
vn 0.1113 0.9903 0.0837
vn 0.1851 0.9700 0.1577
vn 0.1352 -0.9873 -0.0839
vn 0.6700 -0.1167 0.7332
vn 0.1644 -0.9801 -0.1112
vn 0.8621 0.0733 0.5014
vn -0.0643 0.9848 0.1613
vn -0.0799 0.9854 0.1504
vn -0.0502 -0.9926 0.1105
vn 0.9654 0.0586 0.2541
vn -0.0023 -0.9910 0.1338
vn 0.9648 -0.0206 0.2622
vn 0.1301 0.9866 -0.0984
vn 0.1387 0.9878 -0.0713
vn 0.0077 -0.9991 0.0426
vn 0.9838 -0.0461 0.1730
vn 0.0942 0.9953 -0.0244
vn -0.0896 -0.9848 0.1486
vn -0.0001 -0.9982 0.0595
vn 0.0013 -0.9991 -0.0434
vn -0.0389 -0.9986 0.0352
vn 0.1954 -0.9680 -0.1575
vn 0.0948 -0.9902 -0.1025
vn -0.1880 -0.9792 0.0761
vn -0.1990 -0.9740 0.1080
vn -0.0512 -0.9972 0.0542
vn -0.0279 -0.9978 0.0593
vn -0.0160 -0.9984 0.0537
vn 0.0340 -0.9963 0.0789
vn 0.3063 -0.9318 0.1945
vn 0.3964 -0.8942 0.2081
vn 0.2526 -0.9609 0.1130
vn 0.1399 -0.9902 0.0027
vn -0.0316 -0.9865 -0.1604
vn -0.0318 -0.9877 -0.1532
vn -0.0243 -0.9943 -0.1041
vn -0.0318 -0.9984 -0.0476
vn -0.0471 -0.9988 -0.0088
vn 0.4487 -0.7216 -0.5273
vn -0.0058 -0.9978 -0.0659
vn -0.0361 -0.9987 -0.0349
vn 0.1396 -0.9785 -0.1520
vn -0.3088 -0.9502 0.0428
vn -0.2143 -0.9747 0.0642
vn -0.0425 -0.9924 -0.1152
vn 0.0078 -0.9977 -0.0678
vn 0.0102 -0.9905 -0.1373
vn -0.2197 -0.9712 -0.0927
vn 0.3404 -0.9402 -0.0136
vn -0.0182 -0.9866 -0.1621
vn -0.1078 -0.9646 -0.2408
vn -0.0555 -0.9975 -0.0434
vn -0.0208 -0.9998 0.0031
vn -0.0312 -0.9994 -0.0180
vn 0.2469 0.9690 0.0138
vn 0.2366 0.9571 -0.1673
vn 0.0292 0.9973 0.0667
vn 0.2765 0.9610 0.0026
vn 0.2495 0.9534 -0.1695
vn 0.3611 0.9315 0.0434
vn 0.1691 0.9833 -0.0680
vn 0.3280 0.9429 -0.0570
vn 0.2374 0.9701 -0.0505
vn 0.1501 0.9859 -0.0742
vn -0.0893 0.9952 -0.0405
vn -0.1198 0.9917 -0.0472
vn -0.4382 0.8948 0.0853
vn -0.2711 0.9607 -0.0595
vn 0.3203 0.9322 -0.1684
vn -0.1904 0.9632 0.1898
vn -0.3887 0.8469 0.3629
vn -0.3846 0.8553 0.3471
vn -0.2741 0.9477 0.1638
vn -0.1168 0.9741 -0.1936
vn -0.0410 0.9750 0.2185
vn -0.2243 0.8856 0.4068
vn -0.2425 0.9317 0.2703
vn -0.4879 0.8720 0.0398
vn -0.6438 0.7417 -0.1883
vn -0.5628 0.8194 -0.1092
vn -0.2408 0.9661 0.0931
vn -0.1388 0.9774 0.1594
vn -0.0431 0.9859 0.1614
vn -0.0076 0.9825 0.1859
vn 0.0531 0.9864 0.1553
vn 0.1884 0.9740 0.1256
vn 0.2574 0.9622 0.0893
vn 0.0513 0.9676 0.2471
vn -0.0477 0.9606 0.2737
vn 0.2434 0.9699 -0.0057
vn 0.2807 0.9570 -0.0738
# 182 vertex normals

vt 0.7500 0.0000 1.0000
vt 0.7778 0.0000 1.0000
vt 0.7778 0.5000 1.0000
vt 0.7500 0.5000 1.0000
vt 0.8056 0.0000 1.0000
vt 0.8056 0.5000 1.0000
vt 0.8056 1.0000 1.0000
vt 0.7778 1.0000 1.0000
vt 0.7500 1.0000 1.0000
vt 0.8333 0.0000 1.0000
vt 0.8333 0.5000 1.0000
vt 0.8611 0.0000 1.0000
vt 0.8611 0.5000 1.0000
vt 0.8611 1.0000 1.0000
vt 0.8333 1.0000 1.0000
vt 0.8889 0.0000 1.0000
vt 0.8889 0.5000 1.0000
vt 0.9167 0.0000 1.0000
vt 0.9167 0.5000 1.0000
vt 0.9167 1.0000 1.0000
vt 0.8889 1.0000 1.0000
vt 0.9444 0.0000 1.0000
vt 0.9444 0.5000 1.0000
vt 0.9722 0.0000 1.0000
vt 0.9722 0.5000 1.0000
vt 0.9722 1.0000 1.0000
vt 0.9444 1.0000 1.0000
vt 1.0000 0.0000 1.0000
vt 1.0000 0.5000 1.0000
vt 1.0278 0.0000 1.0000
vt 1.0278 0.5000 1.0000
vt 1.0278 1.0000 1.0000
vt 1.0000 1.0000 1.0000
vt 0.0278 0.0000 1.0000
vt 0.0556 0.0000 1.0000
vt 0.0556 0.5000 1.0000
vt 0.0278 0.5000 1.0000
vt 0.0833 0.0000 1.0000
vt 0.0833 0.5000 1.0000
vt 0.0833 1.0000 1.0000
vt 0.0556 1.0000 1.0000
vt 0.0278 1.0000 1.0000
vt 0.1111 0.0000 1.0000
vt 0.1111 0.5000 1.0000
vt 0.1389 0.0000 1.0000
vt 0.1389 0.5000 1.0000
vt 0.1389 1.0000 1.0000
vt 0.1111 1.0000 1.0000
vt 0.1667 0.0000 1.0000
vt 0.1667 0.5000 1.0000
vt 0.1944 0.0000 1.0000
vt 0.1944 0.5000 1.0000
vt 0.1944 1.0000 1.0000
vt 0.1667 1.0000 1.0000
vt 0.2222 0.0000 1.0000
vt 0.2222 0.5000 1.0000
vt 0.2500 0.0000 1.0000
vt 0.2500 0.5000 1.0000
vt 0.2500 1.0000 1.0000
vt 0.2222 1.0000 1.0000
vt 0.2778 0.0000 1.0000
vt 0.2778 0.5000 1.0000
vt 0.3056 0.0000 1.0000
vt 0.3056 0.5000 1.0000
vt 0.3056 1.0000 1.0000
vt 0.2778 1.0000 1.0000
vt 0.3333 0.0000 1.0000
vt 0.3333 0.5000 1.0000
vt 0.3611 0.0000 1.0000
vt 0.3611 0.5000 1.0000
vt 0.3611 1.0000 1.0000
vt 0.3333 1.0000 1.0000
vt 0.3889 0.0000 1.0000
vt 0.3889 0.5000 1.0000
vt 0.4167 0.0000 1.0000
vt 0.4167 0.5000 1.0000
vt 0.4167 1.0000 1.0000
vt 0.3889 1.0000 1.0000
vt 0.4444 0.0000 1.0000
vt 0.4444 0.5000 1.0000
vt 0.4722 0.0000 1.0000
vt 0.4722 0.5000 1.0000
vt 0.4722 1.0000 1.0000
vt 0.4444 1.0000 1.0000
vt 0.5000 0.0000 1.0000
vt 0.5000 0.5000 1.0000
vt 0.5278 0.0000 1.0000
vt 0.5278 0.5000 1.0000
vt 0.5278 1.0000 1.0000
vt 0.5000 1.0000 1.0000
vt 0.5556 0.0000 1.0000
vt 0.5556 0.5000 1.0000
vt 0.5833 0.0000 1.0000
vt 0.5833 0.5000 1.0000
vt 0.5833 1.0000 1.0000
vt 0.5556 1.0000 1.0000
vt 0.6111 0.0000 1.0000
vt 0.6111 0.5000 1.0000
vt 0.6389 0.0000 1.0000
vt 0.6389 0.5000 1.0000
vt 0.6389 1.0000 1.0000
vt 0.6111 1.0000 1.0000
vt 0.6667 0.0000 1.0000
vt 0.6667 0.5000 1.0000
vt 0.6944 0.0000 1.0000
vt 0.6944 0.5000 1.0000
vt 0.6944 1.0000 1.0000
vt 0.6667 1.0000 1.0000
vt 0.7222 0.0000 1.0000
vt 0.7222 0.5000 1.0000
vt 0.7222 1.0000 1.0000
vt 0.6710 0.9698 -0.2500
vt 0.7462 0.9264 -0.2500
vt 0.5000 0.5000 -0.2500
vt 0.5855 0.9849 -0.2500
vt 0.8214 0.8830 -0.2500
vt 0.8772 0.8165 -0.2500
vt 0.9330 0.7500 -0.2500
vt 0.9627 0.6684 -0.2500
vt 0.9924 0.5868 -0.2500
vt 0.9924 0.5000 -0.2500
vt 0.9924 0.4132 -0.2500
vt 0.9627 0.3316 -0.2500
vt 0.9330 0.2500 -0.2500
vt 0.8772 0.1835 -0.2500
vt 0.8214 0.1170 -0.2500
vt 0.7462 0.0736 -0.2500
vt 0.6710 0.0302 -0.2500
vt 0.5855 0.0151 -0.2500
vt 0.5000 0.0000 -0.2500
vt 0.4145 0.0151 -0.2500
vt 0.3290 0.0302 -0.2500
vt 0.2538 0.0736 -0.2500
vt 0.1786 0.1170 -0.2500
vt 0.1228 0.1835 -0.2500
vt 0.0670 0.2500 -0.2500
vt 0.0373 0.3316 -0.2500
vt 0.0076 0.4132 -0.2500
vt 0.0076 0.5000 -0.2500
vt 0.0076 0.5868 -0.2500
vt 0.0373 0.6684 -0.2500
vt 0.0670 0.7500 -0.2500
vt 0.1228 0.8165 -0.2500
vt 0.1786 0.8830 -0.2500
vt 0.2538 0.9264 -0.2500
vt 0.3290 0.9698 -0.2500
vt 0.4145 0.9849 -0.2500
vt 0.5000 1.0000 -0.2500
vt 0.5000 1.0000 0.2500
vt 0.4145 0.9849 0.2500
vt 0.5000 0.5000 0.2500
vt 0.5855 0.9849 0.2500
vt 0.3290 0.9698 0.2500
vt 0.2538 0.9264 0.2500
vt 0.1786 0.8830 0.2500
vt 0.1228 0.8165 0.2500
vt 0.0670 0.7500 0.2500
vt 0.0373 0.6684 0.2500
vt 0.0076 0.5868 0.2500
vt 0.0076 0.5000 0.2500
vt 0.0076 0.4132 0.2500
vt 0.0373 0.3316 0.2500
vt 0.0670 0.2500 0.2500
vt 0.1228 0.1835 0.2500
vt 0.1786 0.1170 0.2500
vt 0.2538 0.0736 0.2500
vt 0.3290 0.0302 0.2500
vt 0.4145 0.0151 0.2500
vt 0.5000 0.0000 0.2500
vt 0.5855 0.0151 0.2500
vt 0.6710 0.0302 0.2500
vt 0.7462 0.0736 0.2500
vt 0.8214 0.1170 0.2500
vt 0.8772 0.1835 0.2500
vt 0.9330 0.2500 0.2500
vt 0.9627 0.3316 0.2500
vt 0.9924 0.4132 0.2500
vt 0.9924 0.5000 0.2500
vt 0.9924 0.5868 0.2500
vt 0.9627 0.6684 0.2500
vt 0.9330 0.7500 0.2500
vt 0.8772 0.8165 0.2500
vt 0.8214 0.8830 0.2500
vt 0.7462 0.9264 0.2500
vt 0.6710 0.9698 0.2500
# 185 texture coords

g Cylinder001
usemtl 01___Default
s 8
f 1/1/1 2/2/2 3/3/3 4/4/4 
f 5/5/5 6/6/6 3/3/3 2/2/2 
f 7/7/7 8/8/8 3/3/3 6/6/6 
f 9/9/9 4/4/4 3/3/3 8/8/8 
f 5/5/5 10/10/10 11/11/11 6/6/6 
f 12/12/12 13/13/13 11/11/11 10/10/10 
f 14/14/14 15/15/15 11/11/11 13/13/13 
f 7/7/7 6/6/6 11/11/11 15/15/15 
f 12/12/12 16/16/16 17/17/17 13/13/13 
f 18/18/18 19/19/19 17/17/17 16/16/16 
f 20/20/20 21/21/21 17/17/17 19/19/19 
f 14/14/14 13/13/13 17/17/17 21/21/21 
f 18/18/18 22/22/22 23/23/23 19/19/19 
f 24/24/24 25/25/25 23/23/23 22/22/22 
f 26/26/26 27/27/27 23/23/23 25/25/25 
f 20/20/20 19/19/19 23/23/23 27/27/27 
f 24/24/24 28/28/28 29/29/29 25/25/25 
f 30/30/30 31/31/31 29/29/29 28/28/28 
f 32/32/32 33/33/33 29/29/29 31/31/31 
f 26/26/26 25/25/25 29/29/29 33/33/33 
f 30/34/30 34/35/34 35/36/35 31/37/31 
f 36/38/36 37/39/37 35/36/35 34/35/34 
f 38/40/38 39/41/39 35/36/35 37/39/37 
f 32/42/32 31/37/31 35/36/35 39/41/39 
f 36/38/36 40/43/40 41/44/41 37/39/37 
f 42/45/42 43/46/43 41/44/41 40/43/40 
f 44/47/44 45/48/45 41/44/41 43/46/43 
f 38/40/38 37/39/37 41/44/41 45/48/45 
f 42/45/42 46/49/46 47/50/47 43/46/43 
f 48/51/48 49/52/49 47/50/47 46/49/46 
f 50/53/50 51/54/51 47/50/47 49/52/49 
f 44/47/44 43/46/43 47/50/47 51/54/51 
f 48/51/48 52/55/52 53/56/53 49/52/49 
f 54/57/54 55/58/55 53/56/53 52/55/52 
f 56/59/56 57/60/57 53/56/53 55/58/55 
f 50/53/50 49/52/49 53/56/53 57/60/57 
f 54/57/54 58/61/58 59/62/59 55/58/55 
f 60/63/60 61/64/61 59/62/59 58/61/58 
f 62/65/62 63/66/63 59/62/59 61/64/61 
f 56/59/56 55/58/55 59/62/59 63/66/63 
f 60/63/60 64/67/64 65/68/65 61/64/61 
f 66/69/66 67/70/67 65/68/65 64/67/64 
f 68/71/68 69/72/69 65/68/65 67/70/67 
f 62/65/62 61/64/61 65/68/65 69/72/69 
f 66/69/66 70/73/70 71/74/71 67/70/67 
f 72/75/72 73/76/73 71/74/71 70/73/70 
f 74/77/74 75/78/75 71/74/71 73/76/73 
f 68/71/68 67/70/67 71/74/71 75/78/75 
f 72/75/72 76/79/76 77/80/77 73/76/73 
f 78/81/78 79/82/79 77/80/77 76/79/76 
f 80/83/80 81/84/81 77/80/77 79/82/79 
f 74/77/74 73/76/73 77/80/77 81/84/81 
f 78/81/78 82/85/82 83/86/83 79/82/79 
f 84/87/84 85/88/85 83/86/83 82/85/82 
f 86/89/86 87/90/87 83/86/83 85/88/85 
f 80/83/80 79/82/79 83/86/83 87/90/87 
f 84/87/84 88/91/88 89/92/89 85/88/85 
f 90/93/90 91/94/91 89/92/89 88/91/88 
f 92/95/92 93/96/93 89/92/89 91/94/91 
f 86/89/86 85/88/85 89/92/89 93/96/93 
f 90/93/90 94/97/94 95/98/95 91/94/91 
f 96/99/96 97/100/97 95/98/95 94/97/94 
f 98/101/98 99/102/99 95/98/95 97/100/97 
f 92/95/92 91/94/91 95/98/95 99/102/99 
f 96/99/96 100/103/100 101/104/101 97/100/97 
f 102/105/102 103/106/103 101/104/101 100/103/100 
f 104/107/104 105/108/105 101/104/101 103/106/103 
f 98/101/98 97/100/97 101/104/101 105/108/105 
f 102/105/102 106/109/106 107/110/107 103/106/103 
f 1/1/1 4/4/4 107/110/107 106/109/106 
f 9/9/9 108/111/108 107/110/107 4/4/4 
f 104/107/104 103/106/103 107/110/107 108/111/108 
s 1
f 102/112/109 100/113/110 109/114/111 106/115/112 
f 96/116/113 94/117/114 109/114/111 100/113/110 
f 90/118/115 88/119/116 109/114/111 94/117/114 
f 84/120/117 82/121/118 109/114/111 88/119/116 
f 78/122/119 76/123/120 109/114/111 82/121/118 
f 72/124/121 70/125/122 109/114/111 76/123/120 
f 66/126/123 64/127/124 109/114/111 70/125/122 
f 60/128/125 58/129/126 109/114/111 64/127/124 
f 54/130/127 52/131/128 109/114/111 58/129/126 
f 48/132/129 46/133/130 109/114/111 52/131/128 
f 42/134/131 40/135/132 109/114/111 46/133/130 
f 36/136/133 34/137/134 109/114/111 40/135/132 
f 30/138/135 28/139/136 109/114/111 34/137/134 
f 24/140/137 22/141/138 109/114/111 28/139/136 
f 18/142/139 16/143/140 109/114/111 22/141/138 
f 12/144/141 10/145/142 109/114/111 16/143/140 
f 5/146/143 2/147/144 109/114/111 10/145/142 
f 1/148/145 106/115/112 109/114/111 2/147/144 
f 9/149/146 8/150/147 110/151/148 108/152/149 
f 7/153/150 15/154/151 110/151/148 8/150/147 
f 14/155/152 21/156/153 110/151/148 15/154/151 
f 20/157/154 27/158/155 110/151/148 21/156/153 
f 26/159/156 33/160/157 110/151/148 27/158/155 
f 32/161/158 39/162/159 110/151/148 33/160/157 
f 38/163/160 45/164/161 110/151/148 39/162/159 
f 44/165/162 51/166/163 110/151/148 45/164/161 
f 50/167/164 57/168/165 110/151/148 51/166/163 
f 56/169/166 63/170/167 110/151/148 57/168/165 
f 62/171/168 69/172/169 110/151/148 63/170/167 
f 68/173/170 75/174/171 110/151/148 69/172/169 
f 74/175/172 81/176/173 110/151/148 75/174/171 
f 80/177/174 87/178/175 110/151/148 81/176/173 
f 86/179/176 93/180/177 110/151/148 87/178/175 
f 92/181/178 99/182/179 110/151/148 93/180/177 
f 98/183/180 105/184/181 110/151/148 99/182/179 
f 104/185/182 108/152/149 110/151/148 105/184/181 
# 108 polygons

