# 3ds Max Wavefront OBJ Exporter v0.97b - (c)2007 guruware
# File Created: 19.12.2016 19:11:33

mtllib ladentisch.mtl

#
# object Box005
#

v  -64.4617 0.1530 29.5876
v  -64.4617 0.1530 10.7603
v  22.7817 0.1530 10.7603
v  22.7817 0.1530 29.5876
v  -64.4617 21.9091 29.5876
v  22.7817 21.9091 29.5876
v  22.7817 21.9091 10.7603
v  -64.4617 21.9091 10.7603
v  22.3505 0.1530 77.4389
v  3.5239 0.1530 77.2722
v  3.9539 0.1530 28.7094
v  22.7806 0.1530 28.8761
v  22.3505 21.9091 77.4389
v  22.7806 21.9091 28.8761
v  3.9539 21.9091 28.7094
v  3.5239 21.9091 77.2722
# 16 vertices

vn 0.0000 -1.0000 -0.0000
vn 0.0000 1.0000 -0.0000
vn -0.0008 0.0000 1.0000
vn 1.0000 0.0000 -0.0008
vn 0.0008 0.0000 -1.0000
vn -1.0000 0.0000 0.0008
vn 1.0000 0.0000 0.0078
vn 0.0099 0.0000 -1.0000
vn -1.0000 0.0000 -0.0078
vn -0.0099 0.0000 1.0000
# 10 vertex normals

vt 1.0000 0.0000 0.0000
vt 1.0000 1.0000 0.0000
vt 0.0000 1.0000 0.0000
vt 0.0000 0.0000 0.0000
# 4 texture coords

g Box005
usemtl 02___Default
s 2
f 1/1/1 2/2/1 3/3/1 4/4/1 
s 4
f 5/4/2 6/1/2 7/2/2 8/3/2 
s 8
f 1/4/3 4/1/3 6/2/3 5/3/3 
s 16
f 4/4/4 3/1/4 7/2/4 6/3/4 
s 32
f 3/4/5 2/1/5 8/2/5 7/3/5 
s 64
f 2/4/6 1/1/6 5/2/6 8/3/6 
s 2
f 9/1/1 10/2/1 11/3/1 12/4/1 
s 4
f 13/4/2 14/1/2 15/2/2 16/3/2 
s 8
f 9/4/7 12/1/7 14/2/7 13/3/7 
s 16
f 12/4/8 11/1/8 15/2/8 14/3/8 
s 32
f 11/4/9 10/1/9 16/2/9 15/3/9 
s 64
f 10/4/10 9/1/10 13/2/10 16/3/10 
# 12 polygons

#
# object Platte
#

v  -24.0874 21.5077 30.7107
v  -67.1018 21.5077 30.8767
v  -67.1864 21.5077 4.2443
v  -24.1720 21.5077 4.0783
v  -24.0874 23.5743 30.7107
v  -24.1720 23.5743 4.0783
v  -67.1864 23.5743 4.2443
v  -67.1018 23.5743 30.8767
v  29.3611 21.5068 30.5394
v  -24.1710 21.5068 30.7054
v  -24.2793 21.5068 4.0729
v  29.2528 21.5068 3.9069
v  29.3611 23.5735 30.5394
v  29.2528 23.5735 3.9069
v  -24.2793 23.5735 4.0729
v  -24.1710 23.5735 30.7054
v  2.6635 21.4995 79.0984
v  2.6635 21.4995 29.9557
v  29.2961 21.4995 29.9557
v  29.2961 21.4995 79.0984
v  2.6635 23.5662 79.0984
v  29.2961 23.5662 79.0984
v  29.2961 23.5662 29.9557
v  2.6635 23.5662 29.9557
# 24 vertices

vn 0.0000 -1.0000 -0.0000
vn 0.0000 1.0000 -0.0000
vn 1.0000 0.0000 -0.0039
vn -0.0032 0.0000 -1.0000
vn -1.0000 0.0000 0.0039
vn 0.0032 0.0000 1.0000
vn 1.0000 0.0000 -0.0047
vn -0.0024 0.0000 -1.0000
vn -1.0000 0.0000 0.0047
vn 0.0024 0.0000 1.0000
vn -0.0008 0.0000 1.0000
vn 1.0000 0.0000 -0.0008
vn 0.0008 0.0000 -1.0000
vn -1.0000 0.0000 0.0008
# 14 vertex normals

vt 1.0000 0.0000 0.0000
vt 1.0000 1.0000 0.0000
vt 0.0000 1.0000 0.0000
vt 0.0000 0.0000 0.0000
# 4 texture coords

g Platte
usemtl 01___Default
s 2
f 17/5/11 18/6/11 19/7/11 20/8/11 
s 4
f 21/8/12 22/5/12 23/6/12 24/7/12 
s 8
f 17/8/13 20/5/13 22/6/13 21/7/13 
s 16
f 20/8/14 19/5/14 23/6/14 22/7/14 
s 32
f 19/8/15 18/5/15 24/6/15 23/7/15 
s 64
f 18/8/16 17/5/16 21/6/16 24/7/16 
s 2
f 25/5/11 26/6/11 27/7/11 28/8/11 
s 4
f 29/8/12 30/5/12 31/6/12 32/7/12 
s 8
f 25/8/17 28/5/17 30/6/17 29/7/17 
s 16
f 28/8/18 27/5/18 31/6/18 30/7/18 
s 32
f 27/8/19 26/5/19 32/6/19 31/7/19 
s 64
f 26/8/20 25/5/20 29/6/20 32/7/20 
s 2
f 33/5/11 34/6/11 35/7/11 36/8/11 
s 4
f 37/8/12 38/5/12 39/6/12 40/7/12 
s 8
f 33/8/21 36/5/21 38/6/21 37/7/21 
s 16
f 36/8/22 35/5/22 39/6/22 38/7/22 
s 32
f 35/8/23 34/5/23 40/6/23 39/7/23 
s 64
f 34/8/24 33/5/24 37/6/24 40/7/24 
# 18 polygons

