# 3ds Max Wavefront OBJ Exporter v0.97b - (c)2007 guruware
# File Created: 29.12.2016 23:42:07

mtllib platzmitpark.mtl

#
# object Object002
#

v  -272.0039 7.6387 -214.2511
v  -486.9069 7.6387 -397.2822
v  -486.9069 7.6387 -149.0706
v  -486.9069 7.6387 179.0134
v  -486.9069 7.6387 413.8209
v  -286.7389 7.6387 242.5422
v  -350.3646 7.6387 179.0134
v  -328.7380 7.6387 -149.0706
v  -272.0039 0.0000 -214.2511
v  -486.9069 0.0000 -397.2822
v  -486.9069 0.0000 -149.0706
v  -328.7380 0.0000 -149.0706
v  -350.3646 0.0000 179.0134
v  -486.9069 0.0000 179.0134
v  -286.7389 0.0000 242.5422
v  -486.9069 0.0000 413.8209
# 16 vertices

vn 0.0000 1.0000 -0.0000
vn 0.6484 0.0000 -0.7613
vn -1.0000 0.0000 -0.0000
vn 0.7543 0.0000 0.6565
vn 0.9978 0.0000 0.0658
vn 0.7066 0.0000 -0.7076
vn 0.6501 0.0000 0.7598
# 7 vertex normals

vt 0.3310 0.6397 0.0000
vt 0.2000 0.7513 0.0000
vt 0.2000 0.6000 0.0000
vt 0.2000 0.4000 0.0000
vt 0.2000 0.2569 0.0000
vt 0.3220 0.3613 0.0000
vt 0.2832 0.4000 0.0000
vt 0.2964 0.6000 0.0000
# 8 texture coords

g Object002
usemtl 08___Default
s 1
f 1/1/1 2/2/1 3/3/1 4/4/1 5/5/1 6/6/1 7/7/1 8/8/1 
s off
f 9/1/2 10/2/2 2/2/2 1/1/2 
f 10/2/3 11/3/3 3/3/3 2/2/3 
f 12/8/4 9/1/4 1/1/4 8/8/4 
f 13/7/5 12/8/5 8/8/5 7/7/5 
f 11/3/3 14/4/3 4/4/3 3/3/3 
f 15/6/6 13/7/6 7/7/6 6/6/6 
f 14/4/3 16/5/3 5/5/3 4/4/3 
f 16/5/7 15/6/7 6/6/7 5/5/7 
# 9 polygons

#
# object straﬂeru
#

v  -486.9069 7.6387 413.8209
v  -486.9069 7.6387 507.0974
v  -433.7874 7.6387 507.0974
v  -215.1086 7.6387 314.0634
v  -286.7389 7.6387 242.5422
v  -486.9069 0.0000 413.8209
v  -486.9069 0.0000 507.0974
v  -433.7874 0.0000 507.0974
v  -286.7389 0.0000 242.5422
v  -215.1086 0.0000 314.0634
# 10 vertices

vn 0.0000 1.0000 -0.0000
vn -1.0000 0.0000 -0.0000
vn 0.0000 0.0000 1.0000
vn -0.6501 0.0000 -0.7598
vn 0.7066 0.0000 -0.7076
vn 0.6618 0.0000 0.7497
# 6 vertex normals

vt 0.2000 0.2569 0.0000
vt 0.2000 0.2000 0.0000
vt 0.2324 0.2000 0.0000
vt 0.3657 0.3177 0.0000
vt 0.3220 0.3613 0.0000
# 5 texture coords

g straﬂeru
usemtl 15___Default
s 1
f 17/9/8 18/10/8 19/11/8 20/12/8 21/13/8 
s off
f 22/9/9 23/10/9 18/10/9 17/9/9 
f 23/10/10 24/11/10 19/11/10 18/10/10 
f 25/13/11 22/9/11 17/9/11 21/13/11 
f 26/12/12 25/13/12 21/13/12 20/12/12 
f 24/11/13 26/12/13 20/12/13 19/11/13 
# 6 polygons

#
# object Object003
#

v  169.2611 7.6387 507.0974
v  468.6047 7.6387 507.0974
v  204.8635 7.6387 336.4460
v  169.2611 7.6387 372.9573
v  -158.8229 7.6387 370.2633
v  -215.1086 7.6387 314.0634
v  -433.7874 7.6387 507.0974
v  -158.8229 7.6387 507.0974
v  169.2611 0.0000 507.0974
v  468.6047 0.0000 507.0974
v  204.8635 0.0000 336.4460
v  169.2611 0.0000 372.9573
v  -158.8229 0.0000 507.0974
v  -158.8229 0.0000 370.2633
v  -215.1086 0.0000 314.0634
v  -433.7874 0.0000 507.0974
# 16 vertices

vn 0.0000 1.0000 -0.0000
vn 0.0000 0.0000 1.0000
vn 0.5432 0.0000 -0.8396
vn -0.7160 0.0000 -0.6981
vn 0.0082 0.0000 -1.0000
vn 0.7066 0.0000 -0.7076
vn -0.6618 0.0000 -0.7497
# 7 vertex normals

vt 0.6000 0.2000 0.0000
vt 0.7825 0.2000 0.0000
vt 0.6217 0.3040 0.0000
vt 0.6000 0.2818 0.0000
vt 0.4000 0.2834 0.0000
vt 0.3657 0.3177 0.0000
vt 0.2324 0.2000 0.0000
vt 0.4000 0.2000 0.0000
# 8 texture coords

g Object003
usemtl 08___Default
s 1
f 27/14/14 28/15/14 29/16/14 30/17/14 31/18/14 32/19/14 33/20/14 34/21/14 
s off
f 35/14/15 36/15/15 28/15/15 27/14/15 
f 36/15/16 37/16/16 29/16/16 28/15/16 
f 37/16/17 38/17/17 30/17/17 29/16/17 
f 39/21/15 35/14/15 27/14/15 34/21/15 
f 38/17/18 40/18/18 31/18/18 30/17/18 
f 40/18/19 41/19/19 32/19/19 31/18/19 
f 42/20/15 39/21/15 34/21/15 33/20/15 
f 41/19/20 42/20/20 33/20/20 32/19/20 
# 9 polygons

#
# object Platzspotted
#

v  -158.8229 7.6387 370.2633
v  -158.8229 7.6387 179.0134
v  -350.3646 7.6387 179.0134
v  169.2611 7.6387 372.9573
v  169.2611 7.6387 179.0134
v  358.3771 7.6387 179.0134
v  163.8523 7.6387 -330.2263
v  -158.8229 7.6387 -149.0706
v  252.7050 7.6387 -240.2223
v  -328.7380 7.6387 -149.0706
v  -158.8229 7.6387 -344.2820
v  123.1847 7.6387 -338.8871
v  -350.3646 0.0000 179.0134
v  -158.8229 0.0000 370.2633
v  169.2611 0.0000 372.9573
v  358.3771 0.0000 179.0134
v  252.7050 0.0000 -240.2223
v  163.8523 0.0000 -330.2263
v  -328.7380 0.0000 -149.0706
v  -158.8229 0.0000 -344.2820
v  123.1847 0.0000 -338.8871
# 21 vertices

vn 0.0000 1.0000 -0.0000
vn -0.7066 0.0000 0.7076
vn -0.0082 0.0000 1.0000
vn 0.7160 0.0000 0.6981
vn 0.9697 0.0000 -0.2444
vn 0.7116 0.0000 -0.7025
vn -0.9978 0.0000 -0.0658
vn -0.7543 0.0000 -0.6565
vn 0.2083 0.0000 -0.9781
vn 0.0191 0.0000 -0.9998
vn 0.0000 -1.0000 -0.0000
# 11 vertex normals

vt 0.4000 0.2834 0.0000
vt 0.4000 0.4000 0.0000
vt 0.2832 0.4000 0.0000
vt 0.6000 0.2818 0.0000
vt 0.6000 0.4000 0.0000
vt 0.7153 0.4000 0.0000
vt 0.5292 0.7094 0.0000
vt 0.4000 0.6000 0.0000
vt -0.1168 0.5584 0.0000
vt 0.2964 0.6000 0.0000
vt 0.4000 0.7190 0.0000
vt 0.5719 0.7157 0.0000
# 12 texture coords

g Platzspotted
usemtl 13___Default
s 2
f 43/22/21 44/23/21 45/24/21 
f 43/22/21 46/25/21 47/26/21 44/23/21 
f 47/26/21 46/25/21 48/27/21 
f 44/23/21 47/26/21 49/28/21 50/29/21 
f 48/27/21 51/30/21 49/28/21 47/26/21 
f 44/23/21 50/29/21 52/31/21 45/24/21 
f 52/31/21 50/29/21 53/32/21 
f 50/29/21 49/28/21 54/33/21 53/32/21 
s off
f 55/24/22 56/22/22 43/22/22 45/24/22 
f 56/22/23 57/25/23 46/25/23 43/22/23 
f 57/25/24 58/27/24 48/27/24 46/25/24 
f 58/27/25 59/30/25 51/30/25 48/27/25 
f 59/30/26 60/28/26 49/28/26 51/30/26 
f 61/31/27 55/24/27 45/24/27 52/31/27 
f 62/32/28 61/31/28 52/31/28 53/32/28 
f 60/28/29 63/33/29 54/33/29 49/28/29 
f 63/33/30 62/32/30 53/32/30 54/33/30 
f 55/24/31 61/31/31 62/32/31 63/33/31 60/28/31 59/30/31 58/27/31 57/25/31 56/22/31 
# 15 polygons - 3 triangles

#
# object straﬂero
#

v  468.6047 7.6387 507.0974
v  497.3450 7.6387 507.0974
v  497.3450 7.6387 389.2778
v  280.4326 7.6387 258.9478
v  204.8635 7.6387 336.4460
v  468.6047 0.0000 507.0974
v  497.3450 0.0000 507.0974
v  497.3450 0.0000 389.2778
v  204.8635 0.0000 336.4460
v  280.4326 0.0000 258.9478
# 10 vertices

vn 0.0000 1.0000 -0.0000
vn 0.0000 0.0000 1.0000
vn 1.0000 0.0000 -0.0000
vn -0.5432 0.0000 0.8396
vn -0.7160 0.0000 -0.6981
vn 0.5150 0.0000 -0.8572
# 6 vertex normals

vt 0.7825 0.2000 0.0000
vt 0.8000 0.2000 0.0000
vt 0.8000 0.2718 0.0000
vt 0.6678 0.3513 0.0000
vt 0.6217 0.3040 0.0000
# 5 texture coords

g straﬂero
usemtl 15___Default
s 1
f 64/34/32 65/35/32 66/36/32 67/37/32 68/38/32 
s off
f 69/34/33 70/35/33 65/35/33 64/34/33 
f 70/35/34 71/36/34 66/36/34 65/35/34 
f 72/38/35 69/34/35 64/34/35 68/38/35 
f 73/37/36 72/38/36 68/38/36 67/37/36 
f 71/36/37 73/37/37 67/37/37 66/36/37 
# 6 polygons

#
# object s
#

v  280.4326 7.6387 258.9478
v  497.3450 7.6387 389.2778
v  497.3450 7.6387 179.0134
v  315.7430 7.6387 222.7359
v  280.4326 0.0000 258.9478
v  497.3450 0.0000 389.2778
v  497.3450 0.0000 179.0134
v  315.7430 0.0000 222.7359
# 8 vertices

vn 0.0000 1.0000 -0.0000
vn -0.5150 0.0000 0.8572
vn 1.0000 0.0000 -0.0000
vn -0.2341 0.0000 -0.9722
vn -0.7160 0.0000 -0.6981
# 5 vertex normals

vt 0.6678 0.3513 0.0000
vt 0.8000 0.2718 0.0000
vt 0.8000 0.4000 0.0000
vt 0.6893 0.3733 0.0000
# 4 texture coords

g s
usemtl 08___Default
s 1
f 74/39/38 75/40/38 76/41/38 77/42/38 
s off
f 78/39/39 79/40/39 75/40/39 74/39/39 
f 79/40/40 80/41/40 76/41/40 75/40/40 
f 80/41/41 81/42/41 77/42/41 76/41/41 
f 81/42/42 78/39/42 74/39/42 77/42/42 
# 5 polygons

#
# object sgreen
#

v  169.2611 7.6387 -477.1546
v  105.0071 7.6387 -339.2348
v  123.1847 7.6387 -338.8871
v  163.8523 7.6387 -330.2263
v  252.7050 7.6387 -240.2223
v  358.3771 7.6387 179.0134
v  315.7430 7.6387 222.7359
v  497.3450 7.6387 179.0134
v  497.3450 7.6387 -149.0706
v  497.3450 7.6387 -477.1546
v  497.3450 0.0000 -149.0706
v  497.3450 0.0000 -477.1546
v  169.2611 0.0000 -477.1546
v  105.0071 0.0000 -339.2348
v  123.1847 0.0000 -338.8871
v  163.8523 0.0000 -330.2263
v  252.7050 0.0000 -240.2223
v  358.3771 0.0000 179.0134
v  497.3450 0.0000 179.0134
v  315.7430 0.0000 222.7359
# 20 vertices

vn 0.0000 1.0000 -0.0000
vn 1.0000 0.0000 -0.0000
vn 0.0000 0.0000 -1.0000
vn -0.9065 0.0000 -0.4223
vn -0.0191 0.0000 0.9998
vn -0.2083 0.0000 0.9781
vn -0.7116 0.0000 0.7025
vn -0.9697 0.0000 0.2444
vn -0.7160 0.0000 -0.6981
vn 0.2341 0.0000 0.9722
# 10 vertex normals

vt 0.6000 0.8000 0.0000
vt 0.5608 0.7159 0.0000
vt 0.5719 0.7157 0.0000
vt 0.5292 0.7094 0.0000
vt -0.1168 0.5584 0.0000
vt 0.7153 0.4000 0.0000
vt 0.6893 0.3733 0.0000
vt 0.8000 0.4000 0.0000
vt 0.8000 0.6000 0.0000
vt 0.8000 0.8000 0.0000
# 10 texture coords

g sgreen
usemtl 14___Default
s 1
f 82/43/43 83/44/43 84/45/43 85/46/43 86/47/43 87/48/43 88/49/43 89/50/43 90/51/43 91/52/43 
s off
f 92/51/44 93/52/44 91/52/44 90/51/44 
f 93/52/45 94/43/45 82/43/45 91/52/45 
f 94/43/46 95/44/46 83/44/46 82/43/46 
f 95/44/47 96/45/47 84/45/47 83/44/47 
f 96/45/48 97/46/48 85/46/48 84/45/48 
f 97/46/49 98/47/49 86/47/49 85/46/49 
f 98/47/50 99/48/50 87/48/50 86/47/50 
f 100/50/44 92/51/44 90/51/44 89/50/44 
f 99/48/51 101/49/51 88/49/51 87/48/51 
f 101/49/52 100/50/52 89/50/52 88/49/52 
# 11 polygons

#
# object Object001
#

v  105.0071 7.6387 -339.2348
v  169.2611 7.6387 -477.1546
v  -158.8229 7.6387 -477.1546
v  -432.0743 7.6387 -477.1546
v  -203.6503 7.6387 -292.7809
v  -158.8229 7.6387 -344.2820
v  105.0071 0.0000 -339.2348
v  169.2611 0.0000 -477.1546
v  -158.8229 0.0000 -477.1546
v  -158.8229 0.0000 -344.2820
v  -203.6503 0.0000 -292.7809
v  -432.0743 0.0000 -477.1546
# 12 vertices

vn 0.0000 1.0000 -0.0000
vn 0.9065 0.0000 0.4223
vn 0.0000 0.0000 -1.0000
vn -0.0191 0.0000 0.9998
vn 0.7543 0.0000 0.6565
vn -0.6281 0.0000 0.7781
vn 0.0000 -1.0000 -0.0000
# 7 vertex normals

vt 0.5608 0.7159 0.0000
vt 0.6000 0.8000 0.0000
vt 0.4000 0.8000 0.0000
vt 0.2334 0.8000 0.0000
vt 0.3727 0.6876 0.0000
vt 0.4000 0.7190 0.0000
# 6 texture coords

g Object001
usemtl 08___Default
s 1
f 102/53/53 103/54/53 104/55/53 105/56/53 106/57/53 107/58/53 
s off
f 108/53/54 109/54/54 103/54/54 102/53/54 
f 109/54/55 110/55/55 104/55/55 103/54/55 
f 111/58/56 108/53/56 102/53/56 107/58/56 
f 112/57/57 111/58/57 107/58/57 106/57/57 
f 110/55/55 113/56/55 105/56/55 104/55/55 
f 113/56/58 112/57/58 106/57/58 105/56/58 
f 108/53/59 111/58/59 112/57/59 113/56/59 110/55/59 109/54/59 
# 8 polygons

#
# object straﬂelu
#

v  -432.0743 7.6387 -477.1546
v  -486.9069 7.6387 -477.1546
v  -486.9069 7.6387 -397.2822
v  -272.0039 7.6387 -214.2511
v  -203.6503 7.6387 -292.7809
v  -432.0743 0.0000 -477.1546
v  -486.9069 0.0000 -477.1546
v  -486.9069 0.0000 -397.2822
v  -203.6503 0.0000 -292.7809
v  -272.0039 0.0000 -214.2511
# 10 vertices

vn 0.0000 1.0000 -0.0000
vn 0.0000 0.0000 -1.0000
vn -1.0000 0.0000 -0.0000
vn 0.6281 0.0000 -0.7781
vn 0.7543 0.0000 0.6565
vn -0.6484 0.0000 0.7613
# 6 vertex normals

vt 0.2334 0.8000 0.0000
vt 0.2000 0.8000 0.0000
vt 0.2000 0.7513 0.0000
vt 0.3310 0.6397 0.0000
vt 0.3727 0.6876 0.0000
# 5 texture coords

g straﬂelu
usemtl 15___Default
s 1
f 114/59/60 115/60/60 116/61/60 117/62/60 118/63/60 
s off
f 119/59/61 120/60/61 115/60/61 114/59/61 
f 120/60/62 121/61/62 116/61/62 115/60/62 
f 122/63/63 119/59/63 114/59/63 118/63/63 
f 123/62/64 122/63/64 118/63/64 117/62/64 
f 121/61/65 123/62/65 117/62/65 116/61/65 
# 6 polygons

#
# object Plane001
#

v  -814.9909 7.6387 835.1813
v  -486.9069 7.6387 835.1813
v  -486.9069 7.6387 507.0974
v  -814.9909 7.6387 507.0974
v  -158.8229 7.6387 835.1813
v  -158.8229 7.6387 507.0974
v  169.2611 7.6387 835.1813
v  169.2611 7.6387 507.0974
v  497.3450 7.6387 835.1813
v  497.3450 7.6387 507.0974
v  825.4290 7.6387 835.1813
v  825.4290 7.6387 507.0974
v  -486.9069 7.6387 179.0134
v  -814.9909 7.6387 179.0134
v  825.4290 7.6387 179.0134
v  497.3450 7.6387 179.0134
v  -486.9069 7.6387 -149.0706
v  -814.9909 7.6387 -149.0706
v  825.4290 7.6387 -149.0706
v  497.3450 7.6387 -149.0706
v  -486.9069 7.6387 -477.1546
v  -814.9909 7.6387 -477.1546
v  825.4290 7.6387 -477.1546
v  497.3450 7.6387 -477.1546
v  -486.9069 7.6387 -805.2386
v  -814.9909 7.6387 -805.2386
v  -158.8229 7.6387 -477.1546
v  -158.8229 7.6387 -805.2386
v  169.2611 7.6387 -477.1546
v  169.2611 7.6387 -805.2386
v  497.3450 7.6387 -805.2386
v  825.4290 7.6387 -805.2386
v  -814.9909 0.0000 835.1813
v  -486.9069 0.0000 835.1813
v  -814.9909 0.0000 507.0974
v  -158.8229 0.0000 835.1813
v  -158.8229 0.0000 507.0974
v  -486.9069 0.0000 507.0974
v  169.2611 0.0000 835.1813
v  169.2611 0.0000 507.0974
v  497.3450 0.0000 835.1813
v  497.3450 0.0000 507.0974
v  825.4290 0.0000 835.1813
v  825.4290 0.0000 507.0974
v  -486.9069 0.0000 179.0134
v  -814.9909 0.0000 179.0134
v  825.4290 0.0000 179.0134
v  497.3450 0.0000 179.0134
v  -486.9069 0.0000 -149.0706
v  -814.9909 0.0000 -149.0706
v  825.4290 0.0000 -149.0706
v  497.3450 0.0000 -149.0706
v  -486.9069 0.0000 -477.1546
v  -814.9909 0.0000 -477.1546
v  825.4290 0.0000 -477.1546
v  497.3450 0.0000 -477.1546
v  -486.9069 0.0000 -805.2386
v  -814.9909 0.0000 -805.2386
v  -158.8229 0.0000 -477.1546
v  -158.8229 0.0000 -805.2386
v  169.2611 0.0000 -477.1546
v  169.2611 0.0000 -805.2386
v  497.3450 0.0000 -805.2386
v  825.4290 0.0000 -805.2386
# 64 vertices

vn 0.0000 1.0000 -0.0000
vn 0.0000 0.0000 1.0000
vn -1.0000 0.0000 -0.0000
vn 0.0000 0.0000 -1.0000
vn 1.0000 0.0000 -0.0000
# 5 vertex normals

vt 0.0000 0.0000 0.0000
vt 0.2000 0.0000 0.0000
vt 0.2000 0.2000 0.0000
vt 0.0000 0.2000 0.0000
vt 0.4000 0.0000 0.0000
vt 0.4000 0.2000 0.0000
vt 0.6000 0.0000 0.0000
vt 0.6000 0.2000 0.0000
vt 0.8000 0.0000 0.0000
vt 0.8000 0.2000 0.0000
vt 1.0000 0.0000 0.0000
vt 1.0000 0.2000 0.0000
vt 0.2000 0.4000 0.0000
vt 0.0000 0.4000 0.0000
vt 1.0000 0.4000 0.0000
vt 0.8000 0.4000 0.0000
vt 0.2000 0.6000 0.0000
vt 0.0000 0.6000 0.0000
vt 1.0000 0.6000 0.0000
vt 0.8000 0.6000 0.0000
vt 0.2000 0.8000 0.0000
vt 0.0000 0.8000 0.0000
vt 1.0000 0.8000 0.0000
vt 0.8000 0.8000 0.0000
vt 0.2000 1.0000 0.0000
vt 0.0000 1.0000 0.0000
vt 0.4000 0.8000 0.0000
vt 0.4000 1.0000 0.0000
vt 0.6000 0.8000 0.0000
vt 0.6000 1.0000 0.0000
vt 0.8000 1.0000 0.0000
vt 1.0000 1.0000 0.0000
# 32 texture coords

g Plane001
usemtl 07___Default
s 1
f 124/64/66 125/65/66 126/66/66 127/67/66 
f 125/65/66 128/68/66 129/69/66 126/66/66 
f 128/68/66 130/70/66 131/71/66 129/69/66 
f 130/70/66 132/72/66 133/73/66 131/71/66 
f 132/72/66 134/74/66 135/75/66 133/73/66 
f 127/67/66 126/66/66 136/76/66 137/77/66 
f 133/73/66 135/75/66 138/78/66 139/79/66 
f 137/77/66 136/76/66 140/80/66 141/81/66 
f 139/79/66 138/78/66 142/82/66 143/83/66 
f 141/81/66 140/80/66 144/84/66 145/85/66 
f 143/83/66 142/82/66 146/86/66 147/87/66 
f 145/85/66 144/84/66 148/88/66 149/89/66 
f 144/84/66 150/90/66 151/91/66 148/88/66 
f 150/90/66 152/92/66 153/93/66 151/91/66 
f 152/92/66 147/87/66 154/94/66 153/93/66 
f 146/86/66 155/95/66 154/94/66 147/87/66 
s off
f 156/64/67 157/65/67 125/65/67 124/64/67 
f 158/67/68 156/64/68 124/64/68 127/67/68 
f 157/65/67 159/68/67 128/68/67 125/65/67 
f 160/69/69 161/66/69 126/66/69 129/69/69 
f 159/68/67 162/70/67 130/70/67 128/68/67 
f 163/71/69 160/69/69 129/69/69 131/71/69 
f 162/70/67 164/72/67 132/72/67 130/70/67 
f 165/73/69 163/71/69 131/71/69 133/73/69 
f 164/72/67 166/74/67 134/74/67 132/72/67 
f 166/74/70 167/75/70 135/75/70 134/74/70 
f 161/66/70 168/76/70 136/76/70 126/66/70 
f 169/77/68 158/67/68 127/67/68 137/77/68 
f 167/75/70 170/78/70 138/78/70 135/75/70 
f 171/79/68 165/73/68 133/73/68 139/79/68 
f 168/76/70 172/80/70 140/80/70 136/76/70 
f 173/81/68 169/77/68 137/77/68 141/81/68 
f 170/78/70 174/82/70 142/82/70 138/78/70 
f 175/83/68 171/79/68 139/79/68 143/83/68 
f 172/80/70 176/84/70 144/84/70 140/80/70 
f 177/85/68 173/81/68 141/81/68 145/85/68 
f 174/82/70 178/86/70 146/86/70 142/82/70 
f 179/87/68 175/83/68 143/83/68 147/87/68 
f 180/88/69 181/89/69 149/89/69 148/88/69 
f 181/89/68 177/85/68 145/85/68 149/89/68 
f 176/84/67 182/90/67 150/90/67 144/84/67 
f 183/91/69 180/88/69 148/88/69 151/91/69 
f 182/90/67 184/92/67 152/92/67 150/90/67 
f 185/93/69 183/91/69 151/91/69 153/93/69 
f 184/92/67 179/87/67 147/87/67 152/92/67 
f 186/94/69 185/93/69 153/93/69 154/94/69 
f 178/86/70 187/95/70 155/95/70 146/86/70 
f 187/95/69 186/94/69 154/94/69 155/95/69 
# 48 polygons

