# 3ds Max Wavefront OBJ Exporter v0.97b - (c)2007 guruware
# File Created: 29.12.2016 21:31:46

mtllib Polizei.mtl

#
# object Sphere002
#

v  4.4216 15.0486 -1.5744
v  4.5625 14.7453 -1.2766
v  3.3998 15.1083 -1.1034
v  3.8727 16.3348 0.7421
v  4.4216 15.9329 1.4111
v  4.6337 16.3617 0.8908
v  5.0964 14.8635 0.8599
v  5.4984 14.7628 0.2592
v  5.8348 15.2521 -0.0051
v  5.4433 15.1083 -1.1034
v  4.7434 15.1788 -1.5276
v  5.2694 15.8114 -1.0329
v  4.4216 16.3055 -0.6123
v  5.2704 16.0648 -0.7479
v  4.6337 15.9799 -1.2163
v  3.4353 15.4730 -1.1270
v  3.0083 15.2521 -0.0051
v  4.0998 15.7183 1.4499
v  3.4353 15.8540 0.9756
v  3.4305 15.4238 1.0547
v  3.5452 14.7750 0.4722
v  5.2979 14.7750 0.4722
v  4.8096 16.3805 -0.1987
v  5.2704 16.2768 0.4223
v  5.4126 15.4238 1.0547
v  4.4216 16.4554 0.2149
v  3.5727 16.0648 -0.7479
v  4.1472 16.3275 -0.4912
v  4.2095 15.9799 -1.2163
v  3.5781 15.0356 -1.0227
v  3.5781 14.7454 -1.0227
v  3.2845 14.7454 -0.6729
v  4.8340 15.0356 -1.1441
v  4.8340 14.7454 -1.1441
v  5.1953 15.0356 -0.9355
v  5.2684 15.0356 -1.0227
v  5.2684 14.7454 -1.0227
v  4.8730 15.0356 -1.2510
v  3.6512 14.7454 -0.9355
v  4.0125 15.0356 -1.1441
v  3.3831 15.0356 -0.6160
v  3.2845 15.0356 0.6420
v  3.2845 14.7454 0.6420
v  3.5781 15.0356 0.9918
v  4.4232 15.0356 1.1856
v  4.4232 14.7454 1.1856
v  4.0125 14.7454 1.1132
v  3.9735 15.0356 1.2201
v  3.9735 14.7454 1.2201
v  4.4232 14.7454 1.2994
v  3.6512 15.0356 0.9046
v  3.6512 14.7454 0.9046
v  3.3831 15.0356 0.5851
v  4.4216 15.5030 1.4922
v  5.4634 15.0356 0.5851
v  5.6061 14.7454 0.1931
v  5.1953 14.7454 0.9046
v  5.5619 15.0356 0.6420
v  5.5619 14.7454 0.6420
v  5.7181 14.7454 0.2129
v  5.2684 14.7454 0.9918
v  4.8730 15.0356 1.2201
v  4.8340 15.0356 1.1132
v  3.2404 14.7454 -0.2240
v  3.2404 15.0356 0.1931
v  3.3831 14.7454 0.5851
v  3.1283 15.0356 0.2129
v  3.1283 14.7454 0.2129
v  3.2845 15.0356 -0.6729
v  3.5891 14.8152 -0.9616
v  3.3448 14.7628 0.2592
v  5.4634 14.7454 -0.6160
v  5.7181 14.7454 -0.2438
v  5.7181 15.0356 -0.2438
v  5.7181 15.0356 0.2129
v  5.6061 14.7454 -0.2240
v  5.6061 15.0356 0.1931
v  5.4634 15.0356 -0.6160
v  5.5620 15.0356 -0.6729
v  5.5620 14.7454 -0.6729
v  5.8164 15.6635 -0.0757
v  5.8182 15.3864 -0.3818
v  4.4216 15.7436 -1.4073
v  3.0267 15.6635 -0.0757
v  5.3552 14.7514 -0.7372
v  4.8730 14.7454 -1.2510
v  4.4232 15.0356 -1.2165
v  4.4232 14.7454 -1.2165
v  4.8340 14.7454 1.1132
v  4.4232 15.0356 1.2994
v  5.4079 15.8540 0.9756
v  3.7468 14.8635 0.8599
v  4.4216 14.9087 1.1095
v  3.9735 15.0356 -1.2510
v  4.4232 14.7454 -1.3303
v  4.0125 14.7454 -1.1441
v  4.4232 15.0356 -1.3303
v  4.8730 14.7454 1.2201
v  3.1283 15.0356 -0.2438
v  3.1283 14.7454 -0.2438
v  3.4332 16.2118 0.0633
v  4.1472 16.4334 0.0937
v  3.5781 14.7454 0.9918
v  3.2404 15.0356 -0.2240
# 104 vertices

vn -0.0854 -0.3218 -0.9480
vn 0.1103 -0.5891 -0.8174
vn -0.7228 -0.2854 -0.6354
vn -0.3989 0.7983 0.4833
vn 0.0555 0.4626 0.8958
vn 0.1659 0.8240 0.5732
vn 0.4073 -0.7016 0.5624
vn 0.8901 -0.3111 0.3221
vn 0.9719 -0.2113 0.0986
vn 0.7153 -0.2439 -0.6591
vn 0.3375 -0.1207 -0.9313
vn 0.6531 0.3059 -0.6786
vn 0.0453 0.9143 -0.3815
vn 0.6346 0.6516 -0.3972
vn 0.2305 0.5850 -0.7554
vn -0.7008 0.1271 -0.6931
vn -0.9803 -0.1950 0.0309
vn -0.3243 0.1958 0.9260
vn -0.7244 0.3672 0.5932
vn -0.7268 -0.1312 0.6654
vn -0.3515 -0.8576 0.3559
vn 0.3490 -0.8576 0.3582
vn 0.2932 0.9476 -0.1317
vn 0.6256 0.7564 0.2324
vn 0.7068 -0.1026 0.6918
vn 0.0429 1.0013 0.1209
vn -0.6262 0.6163 -0.4584
vn -0.2246 0.9277 -0.2823
vn -0.2430 0.5769 -0.7579
vn -0.5034 0.6743 -0.5192
vn -0.4404 -0.6702 -0.6204
vn -0.6273 -0.6722 -0.4201
vn -0.2060 0.7515 0.6530
vn -0.2835 -0.7603 0.5610
vn -0.3762 0.7765 0.5353
vn 0.5034 0.6743 -0.5192
vn 0.4609 -0.6723 -0.6026
vn 0.2718 0.6751 -0.6626
vn 0.4638 -0.7847 0.3912
vn 0.2265 0.7585 0.6379
vn 0.4979 0.7805 0.4112
vn -0.6273 0.6722 0.4201
vn -0.6644 -0.6734 0.3080
vn -0.4609 0.6723 0.6026
vn 0.0324 0.7618 -0.6225
vn 0.0000 -0.7519 -0.6851
vn 0.1969 -0.7770 -0.6259
vn -0.2439 0.6724 0.7205
vn -0.2718 -0.6751 0.6626
vn -0.0000 -0.6754 0.7136
vn 0.4421 0.7604 -0.4543
vn 0.3937 -0.7506 -0.5586
vn 0.6097 0.7507 -0.2407
vn 0.0565 -0.1045 0.9827
vn -0.5619 0.7852 -0.2463
vn -0.6261 -0.7538 -0.2400
vn -0.3892 -0.7831 -0.5156
vn 0.6145 0.6697 0.4430
vn 0.6644 -0.6734 0.3080
vn 0.7390 -0.6726 0.0606
vn 0.5265 -0.6364 0.5429
vn 0.2721 0.6720 0.7105
vn -0.2835 0.7603 -0.5610
vn 0.6521 -0.7623 0.0031
vn 0.6348 0.7765 -0.0106
vn 0.5505 -0.7570 -0.3846
vn -0.7244 0.6723 0.1913
vn -0.7390 -0.6726 0.0606
vn -0.6644 0.6734 -0.3080
vn -0.6301 -0.5224 -0.5910
vn -0.8930 -0.3223 0.3032
vn -0.5907 -0.7586 0.2602
vn 0.7244 -0.6723 -0.1913
vn 0.7390 0.6726 -0.0606
vn 0.7244 0.6723 0.1913
vn -0.6348 -0.7765 0.0106
vn -0.6621 0.7540 0.0199
vn -0.5505 0.7570 0.3846
vn 0.6644 0.6734 -0.3080
vn 0.6273 -0.6722 -0.4201
vn 0.9546 0.2996 0.0072
vn 0.9535 -0.0324 -0.2988
vn -0.0115 0.2365 -0.9574
vn -0.9750 0.2199 -0.0321
vn 0.7584 -0.5033 -0.4318
vn 0.2439 -0.6724 -0.7205
vn -0.0000 0.7519 0.6851
vn -0.0000 -0.7549 0.6314
vn -0.2060 -0.7515 -0.6530
vn -0.0000 0.6724 0.7613
vn 0.7020 0.3516 0.6281
vn -0.4164 -0.6912 0.5684
vn 0.0026 -0.7086 0.6814
vn -0.2844 0.6377 -0.6931
vn -0.0291 -0.6714 -0.7617
vn 0.2557 -0.7542 0.5812
vn -0.0000 0.6754 -0.7136
vn 0.2718 -0.6751 0.6626
vn -0.7390 0.6726 -0.0606
vn -0.7244 -0.6723 -0.1913
vn -0.7065 0.7118 0.0455
vn -0.2198 0.9814 0.0134
vn -0.5034 -0.6743 0.5192
vn 0.6407 0.7491 0.2116
# 104 vertex normals

g Sphere002
usemtl 02___Default
s 1
f 1//1 2//2 3//3 
f 4//4 5//5 6//6 
f 7//7 8//8 9//9 
f 10//10 11//11 12//12 
f 13//13 14//14 15//15 
f 16//16 3//3 17//17 
f 18//18 19//19 20//20 
f 21//21 22//22 7//7 
f 14//14 23//23 24//24 
f 25//25 7//7 9//9 
f 6//6 26//26 4//4 
f 27//27 28//28 29//29 
usemtl 03___Default
f 30//30 31//31 32//32 
f 33//33 34//34 35//35 
f 36//36 37//37 38//38 
f 39//39 40//40 41//41 
f 42//42 43//43 44//44 
f 45//45 46//46 47//47 
f 48//48 49//49 50//50 
f 51//51 52//52 53//53 
usemtl 02___Default
f 5//5 54//54 25//25 
f 20//20 54//54 18//18 
usemtl 03___Default
f 55//55 56//56 57//57 
f 58//58 59//59 60//60 
f 61//61 58//58 62//62 
f 57//57 63//63 55//55 
f 41//41 64//64 39//39 
f 65//65 66//66 64//64 
f 67//67 68//68 43//43 
f 32//32 69//69 30//30 
usemtl 02___Default
f 70//70 71//71 17//17 
usemtl 03___Default
f 35//35 34//34 72//72 
f 73//73 74//74 75//75 
f 76//76 77//77 78//78 
f 79//79 80//80 37//37 
usemtl 02___Default
f 24//24 81//81 14//14 
f 12//12 82//82 10//10 
f 1//1 3//3 16//16 
f 12//12 11//11 83//83 
f 16//16 84//84 27//27 
f 84//84 20//20 19//19 
f 9//9 8//8 85//85 
usemtl 03___Default
f 86//86 38//38 37//37 
f 87//87 88//88 34//34 
f 63//63 89//89 45//45 
f 50//50 90//90 48//48 
usemtl 02___Default
f 5//5 91//91 6//6 
f 91//91 81//81 24//24 
f 17//17 71//71 92//92 
f 21//21 93//93 92//92 
f 29//29 16//16 27//27 
f 83//83 1//1 16//16 
usemtl 03___Default
f 94//94 95//95 31//31 
f 40//40 96//96 88//88 
f 38//38 86//86 97//97 
f 88//88 87//87 40//40 
f 56//56 59//59 57//57 
f 90//90 50//50 98//98 
f 66//66 65//65 53//53 
f 99//99 100//100 67//67 
usemtl 02___Default
f 84//84 19//19 101//101 
f 4//4 102//102 101//101 
f 10//10 2//2 11//11 
f 28//28 101//101 102//102 
f 13//13 23//23 14//14 
f 54//54 7//7 25//25 
f 7//7 93//93 21//21 
f 20//20 92//92 54//54 
f 17//17 92//92 20//20 
usemtl 03___Default
f 56//56 77//77 76//76 
f 75//75 60//60 73//73 
f 66//66 53//53 52//52 
f 103//103 44//44 43//43 
f 60//60 75//75 58//58 
f 56//56 55//55 77//77 
f 46//46 50//50 47//47 
f 89//89 98//98 50//50 
usemtl 02___Default
f 91//91 9//9 81//81 
f 9//9 85//85 82//82 
usemtl 03___Default
f 31//31 30//30 94//94 
f 94//94 40//40 87//87 
f 77//77 74//74 78//78 
f 37//37 36//36 79//79 
f 69//69 32//32 100//100 
f 66//66 68//68 64//64 
usemtl 02___Default
f 19//19 18//18 5//5 
f 18//18 54//54 5//5 
usemtl 03___Default
f 64//64 104//104 65//65 
f 69//69 41//41 30//30 
f 47//47 51//51 45//45 
f 44//44 103//103 48//48 
f 76//76 73//73 60//60 
f 80//80 72//72 37//37 
f 86//86 34//34 88//88 
f 95//95 88//88 96//96 
usemtl 02___Default
f 84//84 17//17 20//20 
f 16//16 17//17 84//84 
f 14//14 12//12 15//15 
f 81//81 12//12 14//14 
f 83//83 16//16 29//29 
f 12//12 83//83 15//15 
usemtl 03___Default
f 52//52 103//103 66//66 
f 49//49 47//47 50//50 
usemtl 02___Default
f 3//3 70//70 17//17 
f 2//2 70//70 3//3 
f 91//91 25//25 9//9 
f 5//5 25//25 91//91 
f 13//13 26//26 23//23 
f 26//26 24//24 23//23 
usemtl 03___Default
f 55//55 58//58 75//75 
f 58//58 55//55 63//63 
f 63//63 62//62 58//58 
f 62//62 63//63 45//45 
f 31//31 39//39 64//64 
f 95//95 96//96 31//31 
f 63//63 57//57 89//89 
f 98//98 89//89 57//57 
f 72//72 78//78 35//35 
f 78//78 79//79 36//36 
usemtl 02___Default
f 82//82 81//81 9//9 
f 81//81 82//82 12//12 
f 24//24 26//26 6//6 
f 6//6 91//91 24//24 
usemtl 03___Default
f 97//97 87//87 38//38 
f 38//38 33//33 35//35 
usemtl 02___Default
f 27//27 84//84 101//101 
f 101//101 28//28 27//27 
f 54//54 93//93 7//7 
f 92//92 93//93 54//54 
f 71//71 21//21 92//92 
usemtl 03___Default
f 57//57 61//61 98//98 
f 62//62 98//98 61//61 
usemtl 02___Default
f 85//85 10//10 82//82 
f 10//10 85//85 2//2 
f 19//19 5//5 4//4 
f 101//101 19//19 4//4 
usemtl 03___Default
f 88//88 95//95 86//86 
f 95//95 97//97 86//86 
f 65//65 67//67 42//42 
f 43//43 42//42 67//67 
f 51//51 44//44 48//48 
f 44//44 51//51 42//42 
f 67//67 65//65 99//99 
f 104//104 99//99 65//65 
f 95//95 94//94 97//97 
f 87//87 97//97 94//94 
f 34//34 86//86 37//37 
f 34//34 37//37 72//72 
usemtl 02___Default
f 1//1 83//83 11//11 
f 2//2 1//1 11//11 
usemtl 03___Default
f 64//64 32//32 31//31 
f 64//64 100//100 32//32 
f 40//40 30//30 41//41 
f 40//40 94//94 30//30 
f 77//77 75//75 74//74 
f 75//75 77//77 55//55 
f 60//60 56//56 76//76 
f 56//56 60//60 59//59 
f 43//43 66//66 103//103 
f 66//66 43//43 68//68 
f 45//45 90//90 62//62 
f 98//98 62//62 90//90 
usemtl 02___Default
f 7//7 22//22 8//8 
usemtl 03___Default
f 80//80 79//79 73//73 
f 72//72 80//80 73//73 
f 39//39 31//31 96//96 
f 96//96 40//40 39//39 
usemtl 02___Default
f 83//83 29//29 15//15 
f 13//13 15//15 29//29 
usemtl 03___Default
f 33//33 38//38 87//87 
f 34//34 33//33 87//87 
f 46//46 45//45 89//89 
f 50//50 46//46 89//89 
f 99//99 104//104 41//41 
f 104//104 64//64 41//41 
f 52//52 51//51 47//47 
f 103//103 52//52 47//47 
usemtl 02___Default
f 13//13 28//28 102//102 
f 13//13 29//29 28//28 
usemtl 03___Default
f 51//51 48//48 45//45 
f 90//90 45//45 48//48 
f 35//35 36//36 38//38 
f 36//36 35//35 78//78 
f 53//53 42//42 51//51 
f 42//42 53//53 65//65 
usemtl 02___Default
f 13//13 102//102 26//26 
f 102//102 4//4 26//26 
usemtl 03___Default
f 73//73 76//76 72//72 
f 78//78 72//72 76//76 
f 47//47 49//49 103//103 
f 49//49 48//48 103//103 
f 100//100 99//99 69//69 
f 41//41 69//69 99//99 
f 100//100 64//64 68//68 
f 68//68 67//67 100//100 
f 59//59 58//58 61//61 
f 61//61 57//57 59//59 
f 74//74 73//73 79//79 
f 79//79 78//78 74//74 
# 0 polygons - 199 triangles

#
# object Sphere003
#

v  4.0197 14.7979 1.1474
v  3.8836 14.7989 1.0892
v  3.7615 14.5852 1.6128
v  4.7652 14.7952 1.1782
v  4.8735 14.5701 1.7609
v  5.0248 14.5756 1.6786
v  4.0940 14.7952 1.1782
v  4.0420 14.5716 1.7768
v  4.2448 14.5678 1.8363
v  5.1671 14.8074 0.9605
v  5.0450 14.8031 1.0432
v  5.3933 14.6193 1.3100
v  5.4736 14.6434 1.1729
v  3.6602 14.5950 1.5232
v  5.5719 14.8919 0.3949
v  5.6343 14.8130 0.5466
v  5.6312 14.8669 0.4018
v  3.3898 14.8510 0.6063
v  3.2591 14.7652 0.7140
v  3.3021 14.7086 0.9135
v  4.3164 14.7941 1.2237
v  4.9799 14.8453 1.1004
v  5.1728 14.8535 0.9722
v  4.5428 14.7941 1.2237
v  4.6545 14.5668 1.8321
v  4.3806 14.5667 1.8528
v  4.5193 14.5664 1.8513
v  3.6922 14.8074 0.9605
v  3.3479 14.6762 1.0474
v  3.4059 14.6493 1.1751
v  3.5778 14.5679 1.4079
v  3.6826 14.5530 1.5220
v  3.5807 14.6059 1.4375
v  5.6127 14.9266 0.2574
v  5.5809 14.9368 0.4088
v  5.4434 14.5972 1.1937
v  4.9364 14.5314 1.7123
v  5.0651 14.5377 1.6314
v  5.6120 14.7323 0.6564
v  5.6200 14.8121 0.4285
v  5.4960 14.6185 1.0863
v  3.2873 14.8919 0.3949
v  3.2466 14.8054 0.5906
v  3.2670 14.7390 0.6589
v  3.2901 14.6962 0.8006
v  3.7690 14.5447 1.5980
v  3.8790 14.8474 1.1012
v  3.6860 14.8556 0.9729
v  3.3810 14.8984 0.6201
v  4.5438 14.8430 1.2352
v  4.3155 14.8430 1.2352
v  4.7680 14.8440 1.1899
v  4.5953 14.5253 1.8275
v  4.7261 14.5264 1.7986
v  4.0817 14.5296 1.7756
v  3.8393 14.5799 1.6693
v  3.9434 14.5342 1.7133
v  3.2697 14.9069 0.3358
v  3.2595 14.9156 0.3013
v  3.2480 14.8737 0.4043
v  3.3914 14.6207 1.1068
v  4.4989 14.5251 1.8377
v  4.1540 14.5280 1.7992
v  4.3231 14.5259 1.8329
v  5.3239 14.6050 1.4055
v  5.2197 14.5905 1.5216
v  5.1831 14.5472 1.5337
v  4.9757 14.7989 1.0892
v  4.8728 14.7986 1.1333
v  5.1629 14.5849 1.5743
v  5.3605 14.5743 1.3280
v  5.4695 14.8510 0.6063
v  5.3333 14.8237 0.7973
v  5.6101 14.7402 0.7723
v  5.4776 14.8963 0.6194
v  5.5827 14.7072 0.8916
v  5.5315 14.6700 1.0451
v  5.5526 14.6531 0.9357
v  3.5078 14.5822 1.3138
v  5.3404 14.8695 0.8096
v  5.6485 14.9946 0.1864
v  3.2706 14.8741 0.2979
v  3.2577 14.7882 0.5140
v  3.5183 14.8715 0.8104
v  3.5259 14.8237 0.7973
v  5.6295 14.9092 0.1579
v  4.0912 14.8440 1.1899
v  5.5845 14.6840 0.8181
v  3.2776 14.9389 0.4095
v  3.2107 14.9946 0.1864
v  3.3459 14.6455 0.9954
v  3.4754 14.6275 1.2954
v  3.2297 14.9092 0.1579
v  4.8025 14.5686 1.7897
v  5.6010 14.8834 0.2524
v  5.1032 14.5803 1.6232
v  4.8511 14.5287 1.7536
v  3.2784 14.8996 0.3649
# 98 vertices

vn -0.3201 0.4538 0.8316
vn -0.4023 0.4629 0.7899
vn -0.5355 0.3813 0.7536
vn 0.2410 0.4849 0.8407
vn 0.3588 0.3992 0.8437
vn 0.4581 0.3752 0.8058
vn -0.2387 0.4854 0.8411
vn -0.3215 0.3934 0.8613
vn -0.1656 0.3894 0.9061
vn 0.5350 0.4442 0.7187
vn 0.4672 0.4324 0.7712
vn 0.7424 0.3521 0.5700
vn 0.7917 0.3553 0.4970
vn -0.6130 0.3697 0.6983
vn 0.7992 0.4260 0.4241
vn 0.9188 0.3597 0.1628
vn 0.9069 0.4137 0.0800
vn -0.7351 0.4218 0.5308
vn -0.8920 0.3704 0.2592
vn -0.8727 0.3361 0.3542
vn -0.0826 0.4935 0.8658
vn 0.4442 -0.2507 0.8601
vn 0.5974 -0.2706 0.7549
vn 0.0819 0.4933 0.8660
vn 0.1774 0.4006 0.8989
vn -0.0363 0.3940 0.9184
vn 0.0646 0.4142 0.9079
vn -0.5319 0.4403 0.7233
vn -0.8248 0.3593 0.4365
vn -0.7919 0.3265 0.5161
vn -0.7302 -0.3822 0.5664
vn -0.6372 -0.3823 0.6692
vn -0.6659 0.3653 0.6505
vn 0.9647 -0.2163 0.1504
vn 0.9050 -0.2906 0.3107
vn 0.8198 -0.3896 0.4196
vn 0.4409 -0.3245 0.8368
vn 0.5332 -0.3861 0.7527
vn 0.9596 -0.2808 0.0191
vn 0.9434 -0.2967 -0.1482
vn 0.8633 -0.3860 0.3251
vn -0.7995 0.4249 0.4245
vn -0.9023 0.3879 0.1879
vn -0.9415 -0.3370 0.0026
vn -0.9398 -0.3171 0.1276
vn -0.5699 -0.3885 0.7240
vn -0.4427 -0.2549 0.8597
vn -0.5945 -0.2744 0.7558
vn -0.8272 -0.3024 0.4736
vn 0.0919 -0.2302 0.9688
vn -0.0928 -0.2309 0.9686
vn 0.2736 -0.2394 0.9316
vn 0.1349 -0.3266 0.9355
vn 0.2506 -0.3241 0.9122
vn -0.2924 -0.3087 0.9051
vn -0.4715 0.3545 0.8075
vn -0.4407 -0.2796 0.8530
vn -0.7815 0.5007 0.3723
vn -0.9639 -0.2168 0.1546
vn -0.9171 0.3886 0.0890
vn -0.8542 -0.3908 0.3429
vn 0.0352 -0.3430 0.9387
vn -0.2787 -0.2008 0.9392
vn -0.1036 -0.3387 0.9352
vn 0.6867 0.3131 0.6560
vn 0.6374 0.3530 0.6849
vn 0.6286 -0.4120 0.6597
vn 0.3959 0.4673 0.7905
vn 0.3252 0.4525 0.8304
vn 0.5626 0.3640 0.7423
vn 0.7529 -0.4159 0.5100
vn 0.7355 0.4210 0.5309
vn 0.6440 0.4276 0.6344
vn 0.8902 0.3622 0.2765
vn 0.8300 -0.2949 0.4734
vn 0.8659 0.3602 0.3472
vn 0.8347 0.3472 0.4274
vn 0.9030 -0.3670 0.2235
vn -0.7712 -0.3820 0.5093
vn 0.7230 -0.2878 0.6281
vn 0.9312 -0.2899 0.2210
vn -0.9575 -0.2866 -0.0312
vn -0.9559 -0.2764 -0.0998
vn -0.7256 -0.2926 0.6228
vn -0.6450 0.4277 0.6333
vn 0.9310 -0.2924 0.2184
vn -0.2724 -0.2403 0.9317
vn 0.9221 -0.3682 0.1188
vn -0.8996 -0.2978 0.3195
vn -0.9312 -0.2903 0.2203
vn -0.8922 -0.3813 0.2422
vn -0.7486 0.3498 0.5633
vn -0.9315 -0.2908 0.2187
vn 0.2840 0.3933 0.8744
vn 0.9598 -0.2782 -0.0388
vn 0.5359 0.3722 0.7578
vn 0.3526 -0.3670 0.8608
vn -0.5661 0.7388 0.3655
vn -0.9348 -0.2748 0.2251
# 99 vertex normals

g Sphere003
usemtl 07___Default
s 1
f 105//105 106//106 107//107 
f 108//108 109//109 110//110 
f 111//111 112//112 113//113 
f 114//114 115//115 116//116 
f 114//114 116//116 117//117 
f 106//106 118//118 107//107 
f 119//119 120//120 121//121 
f 122//122 123//123 124//124 
f 125//125 111//111 113//113 
f 126//126 115//115 127//127 
f 108//108 128//128 129//129 
f 128//128 130//130 131//131 
f 132//132 133//133 134//134 
f 135//135 136//136 137//137 
f 115//115 114//114 127//127 
f 119//119 138//138 139//139 
f 117//117 116//116 140//140 
f 141//141 142//142 110//110 
f 143//143 144//144 120//120 
f 140//140 145//145 117//117 
f 122//122 146//146 147//147 
f 148//148 149//149 123//123 
f 107//107 118//118 150//150 
f 106//106 151//151 152//152 
f 146//146 122//122 153//153 
f 154//154 155//155 128//128 
f 128//128 108//108 156//156 
f 110//110 109//109 141//141 
f 157//157 158//158 129//129 
f 113//113 112//112 159//159 
f 160//160 150//150 161//161 
f 162//162 163//163 164//164 
f 134//134 133//133 165//165 
f 124//124 123//123 149//149 
f 131//131 130//130 166//166 
f 167//167 168//168 113//113 
f 111//111 125//125 155//155 
f 106//106 105//105 151//151 
f 169//169 170//170 171//171 
f 172//172 170//170 169//169 
f 172//172 173//173 174//174 
f 173//173 172//172 126//126 
f 169//169 171//171 175//175 
f 176//176 177//177 178//178 
f 177//177 176//176 179//179 
f 180//180 181//181 182//182 
f 177//177 181//181 180//180 
f 165//165 183//183 134//134 
f 184//184 177//177 179//179 
f 138//138 185//185 139//139 
f 186//186 187//187 164//164 
f 132//132 188//188 189//189 
f 132//132 189//189 133//133 
f 121//121 120//120 144//144 
f 138//138 190//190 185//185 
f 111//111 155//155 191//191 
f 156//156 173//173 126//126 
f 192//192 143//143 178//178 
f 163//163 193//193 194//194 
f 124//124 149//149 195//195 
f 137//137 196//196 135//135 
f 106//106 196//196 137//137 
f 163//163 194//194 197//197 
f 177//177 114//114 181//181 
f 127//127 114//114 177//177 
f 127//127 177//177 184//184 
f 198//198 129//129 158//158 
f 108//108 129//129 198//198 
f 111//111 160//160 112//112 
f 112//112 160//160 161//161 
f 138//138 199//199 190//190 
f 122//122 188//188 153//153 
f 176//176 178//178 120//120 
f 120//120 178//178 143//143 
f 168//168 166//166 130//130 
f 146//146 164//164 147//147 
f 147//147 164//164 187//187 
f 186//186 163//163 197//197 
f 164//164 163//163 186//186 
f 174//174 200//200 171//171 
f 173//173 200//200 174//174 
f 155//155 125//125 128//128 
f 128//128 125//125 130//130 
f 106//106 132//132 196//196 
f 106//106 152//152 132//132 
f 142//142 171//171 200//200 
f 163//163 162//162 193//193 
f 146//146 153//153 193//193 
f 144//144 199//199 121//121 
f 130//130 113//113 168//168 
f 125//125 113//113 130//130 
f 189//189 122//122 124//124 
f 122//122 189//189 188//188 
f 179//179 119//119 139//139 
f 179//179 176//176 119//119 
f 119//119 176//176 120//120 
f 161//161 159//159 112//112 
f 132//132 152//152 188//188 
f 116//116 169//169 175//175 
f 115//115 169//169 116//116 
f 133//133 124//124 195//195 
f 189//189 124//124 133//133 
f 128//128 156//156 154//154 
f 105//105 191//191 151//151 
f 158//158 201//201 198//198 
f 181//181 145//145 182//182 
f 136//136 150//150 118//118 
f 122//122 147//147 123//123 
f 123//123 147//147 148//148 
f 175//175 140//140 116//116 
f 187//187 148//148 147//147 
f 119//119 121//121 138//138 
f 138//138 121//121 199//199 
f 106//106 137//137 118//118 
f 118//118 137//137 136//136 
f 195//195 165//165 133//133 
f 114//114 117//117 181//181 
f 181//181 117//117 145//145 
f 129//129 131//131 157//157 
f 128//128 131//131 129//129 
f 173//173 108//108 110//110 
f 156//156 108//108 173//173 
f 146//146 202//202 164//164 
f 193//193 202//202 146//146 
f 132//132 134//134 196//196 
f 196//196 134//134 183//183 
f 183//183 135//135 196//196 
f 166//166 157//157 131//131 
f 115//115 172//172 169//169 
f 126//126 172//172 115//115 
f 108//108 198//198 109//109 
f 201//201 109//109 198//198 
f 180//180 182//182 192//192 
f 105//105 107//107 160//160 
f 160//160 107//107 150//150 
f 159//159 167//167 113//113 
f 173//173 110//110 200//200 
f 200//200 110//110 142//142 
f 178//178 180//180 192//192 
f 177//177 180//180 178//178 
f 111//111 105//105 160//160 
f 105//105 111//111 191//191 
f 201//201 141//141 109//109 
f 202//202 162//162 164//164 
f 202//203 193//203 162//203 
f 172//172 174//174 170//170 
f 171//171 170//170 174//174 
# 0 polygons - 147 triangles

